<?xml version="1.0" encoding="utf-8"?>
<!-- Generator: Adobe Illustrator 16.0.0, SVG Export Plug-In . SVG Version: 6.00 Build 0)  -->
<!DOCTYPE svg PUBLIC "-//W3C//DTD SVG 1.1//EN" "http://www.w3.org/Graphics/SVG/1.1/DTD/svg11.dtd">
<svg version="1.1" id="Layer_1" xmlns="http://www.w3.org/2000/svg" xmlns:xlink="http://www.w3.org/1999/xlink" x="0px" y="0px"
	 width="400px" height="400px" viewBox="0 0 400 400" enable-background="new 0 0 400 400" xml:space="preserve">
<g>
	<path fill="#F4AB5D" d="M198.576,275.854l-37.311-9.748l-33.607-4.447l-48.941-5.008l-42.695,5.113L0.144,250.267v148.198
		l185.055,0.768c5.828-12.467,17.064-106.016,18.393-114.348L198.576,275.854z"/>
	<polygon fill="#F4AB5D" points="115.185,173.225 58.667,170.914 0.189,174.327 0.189,260.276 152.355,255.275 152.775,194.65 	"/>
	<polygon fill="#F4AB5D" points="115.605,103.158 0.189,82.812 0.189,165.134 112.605,165.912 114.865,118.635 115.564,109.256 
		115.316,109.238 	"/>
	<g>
		<path fill="#ED3181" d="M54.613,24.281c0,0-3.51,25.695-12.83,46.848c0,0,4.477,3.463,11.359,3.109
			c0,0,9.822-26.795,17.977-45.438L54.613,24.281z"/>
		<g>
			<path fill="#BC1D69" d="M58.544,59.881c-2.438,0.766-7.014,1.637-12.459,0.082c-0.51,1.494-1.041,2.992-1.596,4.484
				c3.031,0.467,8.336,1.041,12.268,0.129C57.308,63.123,57.906,61.549,58.544,59.881z"/>
			<path fill="#BC1D69" d="M49.136,49.994c-0.383,1.391-0.791,2.799-1.221,4.23c3.307,0.539,8.725,1.088,12.863-0.129
				c0.6-1.529,1.215-3.104,1.848-4.699C59.689,50.035,53.728,51.041,49.136,49.994z"/>
			<path fill="#BC1D69" d="M69.773,31.92c0.453-1.061,0.9-2.102,1.346-3.119l-16.506-4.52c0,0-0.521,3.805-1.689,9.68
				C56.841,34.34,64.503,34.625,69.773,31.92z"/>
			<path fill="#BC1D69" d="M50.546,44.609c3.889,0.27,10.561,0.438,14.457-1.17c0.746-1.852,1.502-3.709,2.26-5.545
				c-2.736,0.973-8.832,2.66-15.494,1.527C51.402,41.066,50.996,42.803,50.546,44.609z"/>
			<path fill="#BC1D69" d="M42.845,68.625c-0.346,0.84-0.697,1.678-1.062,2.504c0,0,4.477,3.463,11.359,3.109
				c0,0,0.566-1.537,1.525-4.113C51.734,69.994,46.96,69.637,42.845,68.625z"/>
		</g>
		
			<ellipse transform="matrix(0.9645 0.2641 -0.2641 0.9645 9.2412 -15.6601)" fill="#D63E8E" cx="62.866" cy="26.541" rx="8.557" ry="2.138"/>
		<g>
			<path fill="#DDDFDD" d="M61.835,25.754c2.381-4.361,1.047-9.354,1.031-9.391l1.129,0.803c0.082,0.174,1.973,4.281-0.789,9.338
				L61.835,25.754z"/>
		</g>
		<path fill="#FAAD48" d="M61.613,5.736c-2.576,3.613-2.373,8.115,0.383,10.854c2.754,2.738,8.182,2.947,10.654-0.742
			c2.672-3.99,0.633-9.785,5.287-14.482C75.183-1.373,64.408,1.814,61.613,5.736z"/>
	</g>
	<g>
		<path fill="#ED3181" d="M90.822,32.596c0,0-1.121,25.91-8.447,47.832c0,0,4.779,3.039,11.602,2.047
			c0,0,7.301-27.588,13.697-46.904L90.822,32.596z"/>
		<g>
			<path fill="#BC1D69" d="M98.027,67.682c-2.357,0.986-6.832,2.279-12.4,1.232c-0.367,1.535-0.756,3.078-1.174,4.613
				c3.061,0.186,8.4,0.262,12.229-1.008C97.095,71.023,97.544,69.4,98.027,67.682z"/>
			<path fill="#BC1D69" d="M87.744,58.705c-0.252,1.42-0.527,2.863-0.826,4.326c3.346,0.23,8.791,0.277,12.801-1.316
				c0.453-1.578,0.92-3.203,1.402-4.852C98.253,57.771,92.414,59.324,87.744,58.705z"/>
			<path fill="#BC1D69" d="M106.621,38.801c0.355-1.098,0.703-2.178,1.053-3.23l-16.852-2.975c0,0-0.168,3.838-0.789,9.795
				C93.97,42.406,101.626,41.98,106.621,38.801z"/>
			<path fill="#BC1D69" d="M88.65,53.211c3.895-0.086,10.555-0.539,14.285-2.5c0.572-1.912,1.154-3.832,1.738-5.73
				c-2.635,1.223-8.547,3.469-15.283,2.955C89.175,49.607,88.931,51.375,88.65,53.211z"/>
			<path fill="#BC1D69" d="M83.203,77.84c-0.266,0.865-0.541,1.732-0.828,2.588c0,0,4.779,3.039,11.602,2.047
				c0,0,0.418-1.58,1.137-4.234C92.177,78.381,87.394,78.465,83.203,77.84z"/>
		</g>
		<path fill="#D63E8E" d="M107.673,35.57c-0.205,1.164-4.145,1.445-8.797,0.619c-4.654-0.82-8.26-2.43-8.055-3.594
			s4.143-1.439,8.797-0.619C104.275,32.797,107.878,34.406,107.673,35.57z"/>
		<g>
			<path fill="#DDDFDD" d="M98.148,33.395c1.967-4.562-0.01-10.588,0-9.422l1.359,0.676c0.096,0.166,2.355,4.078,0.078,9.365
				L98.148,33.395z"/>
		</g>
		<path fill="#FAAD48" d="M96.078,13.482c-2.234,3.838-1.615,8.301,1.381,10.777c2.998,2.471,8.422,2.174,10.543-1.727
			c2.291-4.221-0.275-9.805,3.926-14.91C108.931,5.152,98.498,9.318,96.078,13.482z"/>
		<path fill="#CE5F15" d="M98.646,18.307c-0.828,1.422-0.598,3.074,0.512,3.99c1.107,0.914,3.117,0.805,3.902-0.639
			c0.848-1.564-0.104-3.631,1.453-5.521C103.404,15.223,99.541,16.766,98.646,18.307z"/>
		<path fill="#CE5F15" d="M63.363,11.287c-0.828,1.42-0.598,3.072,0.512,3.988c1.107,0.916,3.117,0.805,3.902-0.639
			c0.848-1.561-0.102-3.629,1.453-5.52C68.121,8.203,64.259,9.746,63.363,11.287z"/>
	</g>
	<g>
		<path fill="#2A4199" d="M21.982,32.691c0,0,8.062,24.648,8.916,47.748c0,0,5.541,1.162,11.58-2.164c0,0-2.867-28.395-3.672-48.727
			L21.982,32.691z"/>
		<g>
			<path fill="#262961" d="M41.07,63.002c-1.863,1.754-5.598,4.535-11.18,5.512c0.199,1.568,0.375,3.148,0.527,4.732
				c2.932-0.902,7.953-2.705,11.09-5.24C41.369,66.459,41.22,64.781,41.07,63.002z"/>
			<path fill="#262961" d="M28.287,58.215c0.26,1.418,0.51,2.865,0.75,4.338c3.209-0.957,8.32-2.83,11.516-5.73
				c-0.131-1.641-0.264-3.32-0.393-5.035C37.794,53.645,32.875,57.152,28.287,58.215z"/>
			<path fill="#262961" d="M38.957,32.945c-0.055-1.15-0.107-2.285-0.15-3.396l-16.824,3.143c0,0,1.193,3.65,2.709,9.445
				C28.382,40.768,35.4,37.678,38.957,32.945z"/>
			<path fill="#262961" d="M27.203,52.752c3.615-1.451,9.689-4.217,12.492-7.359c-0.137-1.996-0.268-3.998-0.387-5.979
				c-2.037,2.07-6.785,6.252-13.27,8.141C26.425,49.195,26.818,50.936,27.203,52.752z"/>
			<path fill="#262961" d="M30.761,77.721c0.057,0.908,0.105,1.814,0.137,2.719c0,0,5.541,1.162,11.58-2.164
				c0,0-0.166-1.627-0.424-4.363C39.357,75.074,34.904,76.836,30.761,77.721z"/>
		</g>
		<path fill="#40488E" d="M38.806,29.549c0.215,1.162-3.373,2.809-8.018,3.676c-4.646,0.867-8.586,0.627-8.807-0.533
			c-0.213-1.16,3.377-2.805,8.021-3.674C34.648,28.15,38.589,28.389,38.806,29.549z"/>
		<g>
			<path fill="#DDDFDD" d="M29.937,31.121c-0.229-5.607-3.861-12.502-3.898-12.572l1.305-0.693
				c0.154,0.293,3.828,7.258,4.066,13.207L29.937,31.121z"/>
		</g>
		<path fill="#FAAD48" d="M35.519,15.84c0.555,4.404-1.766,8.271-5.488,9.377c-3.723,1.104-8.6-1.291-9.027-5.711
			c-0.461-4.777,4.086-8.914,2.213-15.256C26.941,3.146,34.916,11.061,35.519,15.84z"/>
		<path fill="#CE5F15" d="M31.664,19.566c0.227,1.793-0.717,3.363-2.23,3.812c-1.512,0.449-3.496-0.523-3.668-2.32
			c-0.188-1.941,1.66-3.625,0.898-6.203C28.177,14.408,31.419,17.625,31.664,19.566z"/>
	</g>
	<g>
		<path fill="#4DA326" d="M75.812,33c0,0-1.646,25.879-9.418,47.65c0,0,4.717,3.133,11.555,2.283c0,0,7.861-27.434,14.652-46.617
			L75.812,33z"/>
		<g>
			<path fill="#327510" d="M82.304,68.225c-2.381,0.939-6.883,2.139-12.424,0.977c-0.396,1.529-0.82,3.061-1.268,4.59
				c3.059,0.248,8.391,0.438,12.244-0.756C81.302,71.547,81.785,69.934,82.304,68.225z"/>
			<path fill="#327510" d="M72.203,59.039c-0.281,1.414-0.584,2.854-0.91,4.309c3.338,0.299,8.779,0.455,12.824-1.055
				c0.484-1.57,0.984-3.182,1.498-4.824C82.73,58.32,76.865,59.754,72.203,59.039z"/>
			<path fill="#327510" d="M91.482,39.527c0.377-1.09,0.748-2.164,1.119-3.211L75.812,33c0,0-0.246,3.832-0.986,9.775
				C78.757,42.873,86.421,42.602,91.482,39.527z"/>
			<path fill="#327510" d="M73.222,53.564c3.896-0.008,10.564-0.324,14.332-2.205c0.613-1.902,1.232-3.811,1.857-5.695
				c-2.66,1.166-8.617,3.291-15.344,2.643C73.822,49.973,73.541,51.734,73.222,53.564z"/>
			<path fill="#327510" d="M67.275,78.078c-0.285,0.861-0.576,1.721-0.881,2.572c0,0,4.717,3.133,11.555,2.283
				c0,0,0.451-1.574,1.225-4.211C76.236,78.803,71.453,78.789,67.275,78.078z"/>
		</g>
		<path fill="#5EA534" d="M92.601,36.316c-0.23,1.162-4.174,1.357-8.809,0.439c-4.637-0.914-8.211-2.6-7.98-3.756
			c0.229-1.16,4.172-1.357,8.809-0.439C89.257,33.475,92.83,35.158,92.601,36.316z"/>
		<g>
			<path fill="#DDDFDD" d="M84.41,34.531l-1.395-0.703c0.023-0.047,2.225-4.461,1.77-7.646l1.549-0.221
				C86.859,29.637,84.509,34.334,84.41,34.531z"/>
		</g>
		<path fill="#FAAD48" d="M93.539,18.641c-0.719,4.381-4.041,7.43-7.924,7.43c-3.885,0-7.881-3.68-7.033-8.039
			c0.916-4.713,6.453-7.387,6.461-13.998C88.925,4.033,94.322,13.887,93.539,18.641z"/>
	</g>
	<g>
		<path fill="#6C267A" d="M1.578,34.199c0,0,5.266,25.395,3.541,48.443c0,0,5.377,1.773,11.748-0.857c0,0,0.314-28.537,1.779-48.834
			L1.578,34.199z"/>
		<g>
			<path fill="#893A95" d="M17.167,66.449c-2.043,1.533-6.066,3.883-11.721,4.232c0.021,1.58,0.02,3.166-0.006,4.76
				c3.012-0.57,8.207-1.803,11.605-3.973C17.082,69.918,17.121,68.232,17.167,66.449z"/>
			<path fill="#893A95" d="M4.996,60.268c0.102,1.438,0.193,2.904,0.264,4.393c3.299-0.594,8.584-1.885,12.084-4.414
				c0.053-1.643,0.107-3.328,0.17-5.045C14.955,56.785,9.677,59.721,4.996,60.268z"/>
			<path fill="#893A95" d="M18.417,36.342c0.072-1.15,0.148-2.283,0.229-3.391L1.578,34.199c0,0,0.779,3.76,1.639,9.691
				C7.035,42.939,14.353,40.648,18.417,36.342z"/>
			<path fill="#893A95" d="M4.529,54.717c3.754-1.039,10.102-3.111,13.234-5.924c0.088-1.996,0.184-4,0.281-5.984
				c-2.254,1.832-7.438,5.459-14.092,6.613C4.154,51.096,4.349,52.867,4.529,54.717z"/>
			<path fill="#893A95" d="M5.285,79.928c-0.045,0.908-0.096,1.814-0.166,2.715c0,0,5.377,1.773,11.748-0.857
				c0,0,0.018-1.639,0.064-4.387C14.121,78.256,9.501,79.51,5.285,79.928z"/>
		</g>
		<path fill="#B667C6" d="M18.646,32.951c0.086,1.178-3.664,2.414-8.377,2.758c-4.715,0.346-8.605-0.33-8.691-1.51
			c-0.084-1.178,3.666-2.412,8.379-2.758C14.669,31.098,18.56,31.773,18.646,32.951z"/>
		<g>
			<path fill="#DDDFDD" d="M9.24,34.209c-1.871-1.361-0.547-8.219,0.109-11.104l1.525,0.348c-1.025,4.512-1.359,8.949-0.713,9.49
				L9.24,34.209z"/>
		</g>
		<path fill="#FAAD48" d="M3.99,13.432c-0.945,4.338,1.018,8.396,4.627,9.83c3.609,1.432,8.682-0.516,9.502-4.879
			c0.885-4.719-3.273-9.246-0.84-15.395C13.667,1.555,5.017,8.725,3.99,13.432z"/>
		<path fill="#CE5F15" d="M8.134,17.869c-0.371,1.697,0.396,3.285,1.809,3.846s3.396-0.201,3.717-1.908
			c0.348-1.846-1.279-3.617-0.328-6.023C11.919,13.223,8.535,16.027,8.134,17.869z"/>
	</g>
	<g>
		<path fill="#4DA326" d="M75.812,33c0,0-1.646,25.879-9.418,47.65c0,0,4.717,3.133,11.555,2.283c0,0,7.861-27.434,14.652-46.617
			L75.812,33z"/>
		<g>
			<path fill="#327510" d="M82.304,68.225c-2.381,0.939-6.883,2.139-12.424,0.977c-0.396,1.529-0.82,3.061-1.268,4.59
				c3.059,0.248,8.391,0.438,12.244-0.756C81.302,71.547,81.785,69.934,82.304,68.225z"/>
			<path fill="#327510" d="M72.203,59.039c-0.281,1.414-0.584,2.854-0.91,4.309c3.338,0.299,8.779,0.455,12.824-1.055
				c0.484-1.57,0.984-3.182,1.498-4.824C82.73,58.32,76.865,59.754,72.203,59.039z"/>
			<path fill="#327510" d="M91.482,39.527c0.377-1.09,0.748-2.164,1.119-3.211L75.812,33c0,0-0.246,3.832-0.986,9.775
				C78.757,42.873,86.421,42.602,91.482,39.527z"/>
			<path fill="#327510" d="M73.222,53.564c3.896-0.008,10.564-0.324,14.332-2.205c0.613-1.902,1.232-3.811,1.857-5.695
				c-2.66,1.166-8.617,3.291-15.344,2.643C73.822,49.973,73.541,51.734,73.222,53.564z"/>
			<path fill="#327510" d="M67.275,78.078c-0.285,0.861-0.576,1.721-0.881,2.572c0,0,4.717,3.133,11.555,2.283
				c0,0,0.451-1.574,1.225-4.211C76.236,78.803,71.453,78.789,67.275,78.078z"/>
		</g>
		<path fill="#5EA534" d="M92.601,36.316c-0.23,1.162-4.174,1.357-8.809,0.439c-4.637-0.914-8.211-2.6-7.98-3.756
			c0.229-1.16,4.172-1.357,8.809-0.439C89.257,33.475,92.83,35.158,92.601,36.316z"/>
		<g>
			<path fill="#DDDFDD" d="M84.41,34.531l-1.395-0.703c0.023-0.047,2.225-4.715,1.77-7.902l1.549,0.035
				C86.859,29.637,84.509,34.334,84.41,34.531z"/>
		</g>
		<path fill="#FAAD48" d="M93.539,18.641c-0.719,4.381-4.041,7.43-7.924,7.43c-3.885,0-7.881-3.68-7.033-8.039
			c0.916-4.713,6.453-7.387,6.461-13.998C88.925,4.033,94.322,13.887,93.539,18.641z"/>
		<path fill="#CE5F15" d="M88.06,21.377c-0.271,1.652-1.523,2.805-2.99,2.805c-1.465,0-2.973-1.391-2.652-3.033
			c0.346-1.781,2.434-2.789,2.438-5.285C86.32,15.863,88.357,19.582,88.06,21.377z"/>
	</g>
	<g>
		<circle fill="#A81A46" cx="41.256" cy="240.615" r="10.839"/>
		<path fill="#DB5A89" d="M41.255,233.199c3.924,0,7.342,2.141,9.172,5.312c-0.965-4.176-4.701-7.295-9.172-7.295
			s-8.205,3.117-9.168,7.295C33.914,235.34,37.332,233.199,41.255,233.199z"/>
	</g>
	<g>
		<circle fill="#A81A46" cx="39.696" cy="149.34" r="10.839"/>
		<path fill="#DB5A89" d="M39.695,141.924c3.924,0,7.344,2.141,9.17,5.314c-0.963-4.18-4.699-7.297-9.17-7.297
			s-8.205,3.117-9.168,7.297C32.353,144.064,35.771,141.924,39.695,141.924z"/>
	</g>
	<g>
		<circle fill="#A81A46" cx="94.019" cy="152.988" r="10.84"/>
		<path fill="#DB5A89" d="M94.019,145.572c3.922,0,7.34,2.143,9.17,5.312c-0.963-4.178-4.699-7.295-9.17-7.295
			s-8.205,3.117-9.17,7.295C86.677,147.715,90.095,145.572,94.019,145.572z"/>
	</g>
	<g>
		<circle fill="#A81A46" cx="138.064" cy="152.988" r="10.84"/>
		<path fill="#DB5A89" d="M138.064,145.572c3.924,0,7.34,2.143,9.17,5.312c-0.963-4.178-4.699-7.295-9.17-7.295
			s-8.207,3.117-9.17,7.295C130.722,147.715,134.14,145.572,138.064,145.572z"/>
	</g>
	<g>
		<circle fill="#A81A46" cx="111.969" cy="249.123" r="10.839"/>
		<path fill="#DB5A89" d="M111.97,241.707c3.924,0,7.342,2.141,9.168,5.314c-0.961-4.178-4.697-7.297-9.168-7.297
			c-4.473,0-8.205,3.117-9.17,7.297C104.628,243.848,108.046,241.707,111.97,241.707z"/>
	</g>
	<g>
		<circle fill="#A81A46" cx="171.735" cy="253.83" r="10.839"/>
		<path fill="#DB5A89" d="M171.736,246.414c3.924,0,7.342,2.141,9.17,5.312c-0.963-4.178-4.699-7.297-9.17-7.297
			s-8.207,3.119-9.168,7.297C164.394,248.555,167.814,246.414,171.736,246.414z"/>
	</g>
	<g>
		<path fill="#D88D4A" d="M115.662,103.158L0.246,82.812v29.512c2.08-1.467,3.42-3.111,4.682-4.666
			c2.572-3.166,4.791-5.9,14.398-6.686c9.094-0.738,13.967,3.193,18.678,7c5.57,4.502,11.332,9.16,22.109,3.213
			c3.75-2.068,4.109-6.502,3.807-9.879c12.16,12.887,26.816,15.289,35.525,15.289c3.068,0,5.76-0.375,7.984-0.879
			c2.883-0.65,5.541-1.648,7.924-2.855l0.268-3.605l-0.248-0.018L115.662,103.158z"/>
	</g>
	<g>
		<path fill="#327510" d="M122.697,81.318c-4.795-6.42-12.506-10.553-21.154-11.34c-13.723-1.252-24.676,5.035-28.68,7.734
			c-0.469-0.402-0.936-0.801-1.393-1.188c-8.127-6.875-17.334-14.666-32.033-14.666c-0.012,0-0.027,0-0.041,0
			C23.775,61.875,8.638,72.783,3.546,76.84c-1.166-0.494-2.303-1.008-3.402-1.532L0.08,108.293c2.141-1.486,3.564-3.167,4.848-4.748
			c2.572-3.166,4.791-5.9,14.398-6.686c9.094-0.738,13.967,3.193,18.678,7.002c5.57,4.5,11.332,9.158,22.109,3.211
			c3.75-2.07,4.109-6.502,3.807-9.879c12.16,12.887,26.816,15.289,35.525,15.289c3.068,0,5.76-0.375,7.984-0.877
			c10.709-2.42,18.461-9.549,19.504-14.762C127.919,91.904,126.375,86.246,122.697,81.318z"/>
		<path fill="#4DA326" d="M118.787,84.236c-3.967-5.312-10.412-8.74-17.686-9.398c-10.973-0.996-20.1,3.566-24.307,6.16
			c4.848,3.867,10.219,7.125,15.865,5.637c-6.695,6.18-17.873-0.914-24.338-6.387c-7.855-6.643-15.975-13.51-28.885-13.51
			c-0.012,0-0.023,0-0.035,0c-12.117,0.01-24.398,7.707-30.486,12.156c8.061,2.76,16.977,4.332,24.996,2.844
			c-12.039,5.95-24.404,2.851-33.666-1.192v20.976c0.248-0.253,0.891-1.044,0.895-1.051c2.861-3.523,6.104-7.518,17.787-8.473
			c11.035-0.912,17.195,4.07,22.143,8.066c5.285,4.275,8.779,7.098,16.688,2.736c2.035-1.123,2.607-6.225,2.412-10.043
			c-2.824-3.719-5.451-8.109-7.748-13.309c21.68,28.998,44.33,29.568,53.934,27.398c9.486-2.145,15.24-8.182,15.797-10.961
			C122.855,92.357,121.599,88,118.787,84.236z"/>
		<path fill="#92D371" d="M19.353,74.266c10.537-5.752,20.445-9.812,39.551,0C58.904,74.266,43.216,67.801,19.353,74.266z"/>
		<path fill="#92D371" d="M81.318,80.578c7.117-3.584,23.838-7.439,34.344,2.096c0,0-12.391-7.561-35.133-2.096"/>
	</g>
	<path fill="#D88D4A" d="M115.185,173.225l-56.518-2.311L0.144,174.33v20.177c2.564,0.749,5.689,1.146,9.725,0.726
		c9.65-1.004,13.561-5.723,16.418-9.164c2.113-2.549,3.33-3.898,5.736-4.318c1.037-0.178,3.049,1.752,4.98,3.625
		c6.512,6.314,17.311,16.766,43.043,5.576c0.559,0.559,1.082,1.088,1.561,1.566c5.412,5.406,10.512,10.521,16.186,10.264
		c2.742-0.121,5.221-1.482,7.375-4.049c4.684-5.582,19.395-7.932,29.344,0.379c4.51,3.77,11.418,8.865,18.154,11.195l0.109-15.656
		L115.185,173.225z"/>
	<path fill="#327510" d="M171.724,186.354c-0.279-13.555-3.828-23.641-12.031-26.674c-6.756-2.498-13.539-2.828-20.307-0.604
		c-1.029-8.789-8.729-13.973-21.057-13.973c-9.123,0-12.094,4.672-14.264,8.084c-1.789,2.811-2.969,4.668-7.279,4.906
		c-5.629,0.297-9.49-2.275-13.967-5.268c-4.016-2.686-8.566-5.73-14.674-6.408c-7.201-0.797-10.895,1.699-14.461,4.115
		c-2.996,2.029-6.096,4.131-12.197,4.961c-6.023,0.824-11.232-0.684-16.752-2.277c-6.732-1.947-13.699-3.963-22.408-1.881
		c-0.764,0.183-1.484,0.374-2.184,0.571v36.816c2.564,0.749,5.689,1.146,9.725,0.726c9.65-1.004,13.561-5.721,16.418-9.162
		c2.113-2.551,3.33-3.9,5.736-4.32c1.037-0.178,3.049,1.754,4.98,3.627c6.512,6.312,17.311,16.766,43.043,5.572
		c0.559,0.562,1.082,1.092,1.561,1.568c5.412,5.408,10.512,10.523,16.186,10.264c2.742-0.119,5.221-1.482,7.375-4.047
		c4.684-5.582,19.395-7.934,29.344,0.379c6.029,5.037,16.346,12.455,24.809,12.455c1.781,0,3.48-0.33,5.041-1.078
		C169.449,202.264,171.927,196.088,171.724,186.354z"/>
	<g>
		<path fill="#D77927" d="M0.144,125.497v7.108c47.67-4.859,92.963-10.344,114.732-12.291l0.221-5.41
			C72.246,118.852,33.541,122.435,0.144,125.497z"/>
	</g>
	<path fill="#4DA326" d="M165.63,186.48c-0.16-7.697-1.82-17.664-8.828-21.432c-7.086-3.809-21.916-1.75-37.025,8.105
		c5.182-7.918,13.639-12.016,13.639-12.016c0-3.713-1.957-9.938-15.086-9.939h-0.002c-5.775,0-7.104,2.092-9.117,5.26
		c-2.072,3.258-4.652,7.312-12.09,7.725c-7.643,0.424-12.984-3.145-17.688-6.291c-3.771-2.52-7.332-4.9-11.963-5.414
		c-4.973-0.555-7.115,0.902-10.365,3.102c-3.244,2.197-7.275,4.93-14.795,5.957c-7.303,0.994-13.383-0.764-19.266-2.465
		c-6.25-1.807-12.15-3.514-19.301-1.807c-1.273,0.304-2.428,0.628-3.498,0.973v24.064c2.289,0.935,4.99,1.497,8.994,1.082
		c7.174-0.746,9.688-3.779,12.352-6.99c2.182-2.629,4.654-5.609,9.387-6.434c4.119-0.717,7.104,2.186,10.27,5.254
		c5.883,5.703,13.809,13.385,34.1,5.312c-5.566-5.342-12.236-10.998-16.111-10.594c8.434-0.879,20.414,6.229,26.68,12.488
		c4.242,4.236,8.635,8.635,11.609,8.486c0.361-0.016,1.453-0.064,2.973-1.877c4.23-5.043,11.084-7.586,19.275-7.141
		c6.953,0.371,14.1,2.961,18.646,6.762c10.041,8.389,19.188,12.531,23.305,10.559C165.136,197.57,165.732,191.381,165.63,186.48z"/>
	<path fill="#92D371" d="M55.572,158.408c7.363-4.842,11.045-6.963,21.977,0.625C77.548,159.033,65.724,153.32,55.572,158.408z"/>
	<path fill="#92D371" d="M110.794,156.539c5.326-5.211,17.182-5.092,20.752,2.494C131.546,159.033,124.292,152.482,110.794,156.539z
		"/>
	<path fill="#92D371" d="M129.314,170.414c11.492-4.91,26.105-9.15,33.246,3.346C162.56,173.76,154.751,164.725,129.314,170.414z"/>
	<path fill="#D88D4A" d="M198.576,275.854l-37.311-9.748l-33.607-4.447l-10.225-1.045c-1.326,0.281-2.801,0.426-4.512,0.373
		c-2.137-0.068-4.051-0.605-5.92-1.441l-28.285-2.895l-42.695,5.113L0.144,250.267v39.268c4.832-1.767,8.781-5.692,9.873-10.224
		c0.547-2.262,0.709-6.074-2.477-9.963c7.492,0.232,12.855,3.422,18.473,6.758c10.066,5.984,20.469,12.16,42.029,0.434
		c4.016,4.773,11.238,8.004,18.797,8.316c6.168,0.277,10.326-3.004,14.355-6.158c3.492-2.734,6.789-5.318,11.316-5.496
		c5.238-0.215,11.404,4.141,16.867,7.977c4.977,3.496,9.279,6.514,12.988,6.264c2.031-0.135,3.717-1.029,4.877-2.594
		c1.566-2.109,1.873-5.121,1.785-7.615c8.146,3.342,27.223,10.74,41.182,12.783c2.125,0.311,4.211,0.461,6.23,0.461
		c2.248,0,4.41-0.189,6.455-0.557c0.322-2.445,0.561-4.191,0.695-5.035L198.576,275.854z"/>
	<path fill="#327510" d="M218.748,261.473c-2.334-6.129-5.455-9.873-9.533-11.447c-6.475-2.496-13.676,1.168-20.641,4.709
		c-4.428,2.252-9.01,4.578-12.984,5.064c-6.213,0.752-10.334-2.623-15.098-6.535c-4.799-3.939-10.219-8.416-18.357-8.164
		c-8.039,0.236-12.418,3.367-16.281,6.127c-3.652,2.607-6.811,4.857-12.932,4.67c-5.041-0.16-8.867-2.84-13.709-6.236
		c-6.908-4.842-15.514-10.891-30.881-10.605c-11.834,0.205-19.93,5.35-25.301,11.021c-3.303-2.949-17.787-14.965-35.424-15.77
		c-2.736-0.123-5.184-0.039-7.418,0.191v49.93c4.812-1.774,8.74-5.691,9.828-10.207c0.547-2.264,0.709-6.074-2.477-9.963
		c7.492,0.232,12.855,3.422,18.473,6.76c10.066,5.98,20.469,12.158,42.029,0.432c4.016,4.773,11.238,8.002,18.797,8.316
		c6.168,0.277,10.326-3.004,14.355-6.16c3.492-2.732,6.789-5.316,11.316-5.496c5.238-0.213,11.404,4.143,16.867,7.979
		c4.977,3.496,9.279,6.512,12.988,6.266c2.031-0.135,3.717-1.031,4.877-2.596c1.566-2.109,1.873-5.123,1.785-7.615
		c8.146,3.34,27.223,10.738,41.182,12.781c2.125,0.312,4.211,0.463,6.23,0.463c8.746,0,16.232-2.854,20.328-7.959
		C220.292,273.035,220.994,267.369,218.748,261.473z"/>
	<path fill="#92D371" d="M0.189,159.967v1.504c13.432-2.974,22.023-0.541,22.023-0.541C11.978,157.445,5.574,158.032,0.189,159.967z
		"/>
	<g>
		<path fill="#4DA326" d="M0.146,264.279l-0.002-0.002v14.816c2.545-1.397,4.557-3.63,5.133-6.016
			C6.236,269.098,3.015,266.098,0.146,264.279z"/>
		<path fill="#4DA326" d="M214.189,263.213c-1.814-4.766-4.016-7.59-6.729-8.637c-4.447-1.711-10.387,1.307-16.674,4.504
			c-4.809,2.445-9.777,4.973-14.609,5.559c-8.293,1.006-13.623-3.371-18.779-7.605c-4.539-3.725-8.816-7.258-15.121-7.057
			c-6.555,0.191-9.971,2.633-13.59,5.219c-4.004,2.859-8.145,5.811-15.916,5.574c-6.5-0.203-11.289-3.561-16.357-7.115
			c-6.66-4.668-14.207-9.941-27.996-9.723c-23.223,0.4-34.574,21.094-34.658,21.283c0.18-0.4,1.895-5.684,6.133-11.396
			c-2.646-2.355-16.42-13.908-32.506-14.639c-2.723-0.124-5.096-0.033-7.242,0.215v20.559l0.936-0.145
			c12.412-1.91,20.389,2.834,27.428,7.016c9.688,5.762,18.1,10.756,37.209,0.342c-1.023-3.467-0.682-7.586,0.34-11.17
			c-0.967,3.391,2.086,9.021,3.986,11.656c3.387,4.688,11.584,7.016,17,7.24c4.357,0.174,7.508-2.277,11.146-5.127
			c3.762-2.947,8.029-6.285,14.125-6.529c6.875-0.279,13.771,4.578,19.867,8.859c3.688,2.588,7.859,5.527,9.863,5.391
			c0.75-0.049,1.059-0.336,1.281-0.635c1.174-1.574,0.932-5.652,0.389-8.043l-1.072-4.703l4.422,1.922
			c0.266,0.115,26.682,11.559,43.852,14.07c9.639,1.41,18.086-0.781,22.049-5.723C215.396,271.346,215.82,267.484,214.189,263.213z"
			/>
	</g>
	<path fill="#D77927" d="M0.189,223.907v4.394c63.166,2.238,125.385,4.056,152.26,2.049v-6.428
		C102.16,226.333,48.58,225.595,0.189,223.907z"/>
	<path fill="#92D371" d="M48.589,252.791c5.977-4.98,22.275-11.82,42.289-1.338C90.878,251.453,64.078,245.547,48.589,252.791z"/>
	<path fill="#92D371" d="M130.179,256.955c6.314-6.068,16.209-7.334,24.812,0C154.992,256.955,141.318,251.432,130.179,256.955z"/>
	<path fill="#92D371" d="M194.654,259.674c7.734-5.365,15.76-6.432,19.02,6.338C213.673,266.012,208.056,253.242,194.654,259.674z"
		/>
	<path fill="#92D371" d="M0.189,241.3v2.357c16.111-1.091,28.391,3.79,28.391,3.79C18.705,241.545,8.539,240.133,0.189,241.3z"/>
	<path fill="#D77927" d="M0.144,330.873v7.194c80.215-7.501,161.002-15.713,199.33-19.159c0.277-2.18,0.543-4.311,0.803-6.379
		C146.462,317.354,71.294,324.401,0.144,330.873z"/>
	<polygon fill="#D77927" points="0.144,392.371 0.144,399.232 185.199,399.232 187.517,392.371 	"/>
</g>
</svg>
