<?xml version="1.0" encoding="utf-8"?>
<!-- Generator: Adobe Illustrator 16.0.0, SVG Export Plug-In . SVG Version: 6.00 Build 0)  -->
<!DOCTYPE svg PUBLIC "-//W3C//DTD SVG 1.1//EN" "http://www.w3.org/Graphics/SVG/1.1/DTD/svg11.dtd">
<svg version="1.1" id="Layer_1" xmlns="http://www.w3.org/2000/svg" xmlns:xlink="http://www.w3.org/1999/xlink" x="0px" y="0px"
	 width="400px" height="400px" viewBox="0 0 400 400" enable-background="new 0 0 400 400" xml:space="preserve">
<g>
	<path fill="#F4AB5D" d="M400,249.967l-0.366-0.117l-78.408,11.638l-69.883,14.127l-37.417,4.959l-4.255,6.172
		c1.214,7.846,11.904,98.614,18.494,110.676L400,398.135V249.967z"/>
	<polygon fill="#F4AB5D" points="399.899,173.998 384.804,174.879 338.557,173.672 312.645,176.305 281.429,169.355 252.414,192.24 
		247.471,201.346 255.229,264.701 399.899,259.946 	"/>
	<polygon fill="#F4AB5D" points="400,82.48 391.933,81.059 271.86,91.512 272.165,121.977 268.009,122.619 272.454,151.311 
		272.58,163.92 400,164.802 	"/>
	<g>
		<path fill="#4DA326" d="M291.26,42.732c0,0,9.061,24.299,10.853,47.346c0,0,5.584,0.936,11.48-2.631
			c0,0-4.019-28.254-5.651-48.537L291.26,42.732z"/>
		<g>
			<path fill="#327510" d="M311.565,72.244c-1.79,1.824-5.408,4.76-10.942,5.961c0.261,1.557,0.502,3.129,0.714,4.707
				c2.895-1.023,7.841-3.027,10.871-5.688C312.007,75.686,311.787,74.014,311.565,72.244z"/>
			<path fill="#327510" d="M298.596,67.979c0.32,1.406,0.628,2.844,0.926,4.305c3.168-1.086,8.201-3.166,11.277-6.195
				c-0.203-1.633-0.4-3.307-0.601-5.016C307.911,63.025,303.142,66.729,298.596,67.979z"/>
			<path fill="#327510" d="M308.231,42.297c-0.104-1.148-0.199-2.279-0.29-3.387l-16.682,3.822c0,0,1.34,3.6,3.091,9.328
				C297.982,50.543,304.867,47.17,308.231,42.297z"/>
			<path fill="#327510" d="M297.292,62.564c3.552-1.598,9.509-4.607,12.184-7.861c-0.22-1.988-0.432-3.984-0.63-5.959
				c-1.952,2.152-6.526,6.523-12.929,8.676C296.371,59.043,296.833,60.764,297.292,62.564z"/>
			<path fill="#327510" d="M301.867,87.371c0.089,0.902,0.175,1.807,0.246,2.707c0,0,5.584,0.936,11.48-2.631
				c0,0-0.231-1.621-0.6-4.344C310.345,84.375,305.971,86.316,301.867,87.371z"/>
		</g>
		<path fill="#5EA534" d="M307.941,38.91c0.264,1.152-3.255,2.941-7.863,3.996c-4.606,1.057-8.556,0.979-8.819-0.174
			c-0.263-1.148,3.258-2.939,7.864-3.996C303.73,37.68,307.677,37.76,307.941,38.91z"/>
		<g>
			<path fill="#DDDFDD" d="M299.736,40.623l-1.562-0.074c0.003-0.049-0.041-5.373-1.756-8.096l1.575-0.439
				C299.974,35.154,299.75,40.4,299.736,40.623z"/>
		</g>
		<path fill="#FAAD48" d="M301.584,22.391c1.131,4.291-0.656,8.432-4.203,10.018c-3.545,1.584-8.693-0.145-9.701-4.469
			c-1.086-4.676,2.877-9.377,0.184-15.418C291.41,10.938,300.359,17.73,301.584,22.391z"/>
		<path fill="#CE5F15" d="M297.965,26.635c0.397,1.508-0.231,2.961-1.475,3.518c-1.244,0.557-3.052-0.051-3.405-1.568
			c-0.381-1.641,1.009-3.291,0.065-5.41C294.394,22.617,297.535,25,297.965,26.635z"/>
	</g>
	<g>
		<path fill="#4DA326" d="M378.585,32.91c0,0-4.217,25.588-14.117,46.477c0,0,4.379,3.586,11.27,3.422
			c0,0,10.556-26.512,19.223-44.924L378.585,32.91z"/>
		<g>
			<path fill="#327510" d="M381.536,68.609c-2.46,0.695-7.06,1.441-12.458-0.266c-0.548,1.479-1.123,2.961-1.721,4.439
				c3.019,0.551,8.309,1.27,12.26,0.467C380.208,71.814,380.847,70.256,381.536,68.609z"/>
			<path fill="#327510" d="M372.403,58.461c-0.423,1.381-0.87,2.781-1.337,4.197c3.289,0.631,8.691,1.328,12.863,0.229
				c0.639-1.518,1.297-3.068,1.973-4.652C382.948,58.795,376.967,59.637,372.403,58.461z"/>
			<path fill="#327510" d="M393.528,40.967c0.481-1.047,0.961-2.078,1.433-3.082l-16.375-4.975c0,0-0.625,3.789-1.953,9.631
				C380.535,43.029,388.187,43.523,393.528,40.967z"/>
			<path fill="#327510" d="M373.961,53.115c3.878,0.379,10.543,0.73,14.479-0.766c0.799-1.832,1.607-3.67,2.416-5.48
				c-2.764,0.896-8.905,2.412-15.531,1.1C374.914,49.604,374.458,51.324,373.961,53.115z"/>
			<path fill="#327510" d="M365.601,76.914c-0.369,0.828-0.748,1.654-1.133,2.473c0,0,4.379,3.586,11.27,3.422
				c0,0,0.605-1.521,1.639-4.066C374.445,78.529,369.686,78.039,365.601,76.914z"/>
		</g>
		
			<ellipse transform="matrix(0.9568 0.2907 -0.2907 0.9568 26.9894 -110.8971)" fill="#5EA534" cx="386.773" cy="35.397" rx="8.557" ry="2.138"/>
		<g>
			<path fill="#DDDFDD" d="M386.99,35.293l-1.318-0.842c0.025-0.041,2.678-4.734,2.542-7.949l1.544,0.453
				C389.915,30.666,387.11,35.105,386.99,35.293z"/>
		</g>
		<path fill="#FAAD48" d="M397.655,20.391c-1.151,4.287-4.761,6.99-8.624,6.604s-7.474-4.447-6.197-8.701
			c1.381-4.6,7.157-6.707,7.822-13.285C394.519,5.395,398.91,15.738,397.655,20.391z"/>
		<path fill="#CE5F15" d="M392.073,22.785c-0.432,1.607-1.782,2.619-3.229,2.475c-1.448-0.145-2.799-1.666-2.32-3.26
			c0.518-1.721,2.68-2.512,2.929-4.977C390.898,17.17,392.542,21.045,392.073,22.785z"/>
	</g>
	<g>
		<path fill="#6C267A" d="M262.436,46.186c0,0,5.268,25.393,3.542,48.443c0,0,5.378,1.771,11.749-0.859
			c0,0,0.315-28.537,1.779-48.832L262.436,46.186z"/>
		<g>
			<path fill="#893A95" d="M278.028,78.434c-2.044,1.535-6.068,3.885-11.722,4.234c0.021,1.578,0.021,3.166-0.007,4.76
				c3.015-0.572,8.208-1.803,11.608-3.973C277.94,81.904,277.98,80.219,278.028,78.434z"/>
			<path fill="#893A95" d="M265.855,72.254c0.102,1.438,0.191,2.902,0.263,4.393c3.298-0.594,8.588-1.885,12.086-4.412
				c0.05-1.645,0.106-3.33,0.168-5.049C275.815,68.77,270.536,71.707,265.855,72.254z"/>
			<path fill="#893A95" d="M279.277,48.328c0.073-1.148,0.148-2.283,0.228-3.391l-17.069,1.248c0,0,0.778,3.76,1.639,9.688
				C267.894,54.926,275.212,52.635,279.277,48.328z"/>
			<path fill="#893A95" d="M265.388,66.703c3.756-1.041,10.101-3.113,13.234-5.924c0.088-1.998,0.182-4.002,0.283-5.984
				c-2.254,1.83-7.438,5.459-14.093,6.611C265.014,63.08,265.208,64.854,265.388,66.703z"/>
			<path fill="#893A95" d="M266.146,91.912c-0.047,0.908-0.1,1.816-0.168,2.717c0,0,5.378,1.771,11.749-0.859
				c0,0,0.017-1.637,0.064-4.385C274.982,90.24,270.36,91.494,266.146,91.912z"/>
		</g>
		
			<ellipse transform="matrix(0.9973 -0.0729 0.0729 0.9973 -2.601 19.8809)" fill="#B667C6" cx="270.971" cy="45.562" rx="8.557" ry="2.14"/>
		<g>
			<path fill="#DDDFDD" d="M270.098,46.193c-1.87-1.359-0.545-8.217,0.11-11.102l1.526-0.104c-1.024,4.514-1.359,9.4-0.714,9.941
				L270.098,46.193z"/>
		</g>
		<path fill="#FAAD48" d="M264.85,24.969c-0.945,4.338,1.015,8.398,4.627,9.832c3.609,1.432,8.68-0.516,9.5-4.879
			c0.888-4.719-3.272-9.246-0.84-15.395C274.527,13.094,265.876,20.266,264.85,24.969z"/>
		<path fill="#CE5F15" d="M269.54,30.051c-0.296,1.357,0.317,2.629,1.448,3.078c1.131,0.447,2.718-0.162,2.975-1.527
			c0.277-1.479-1.024-2.895-0.263-4.82C272.569,26.334,269.86,28.576,269.54,30.051z"/>
	</g>
	<g>
		<path fill="#6C267A" d="M326.968,43.686c0,0,6.812,25.023,6.5,48.135c0,0,5.476,1.439,11.671-1.576c0,0-1.432-28.502-1.211-48.85
			L326.968,43.686z"/>
		<g>
			<path fill="#893A95" d="M344.502,74.918c-1.944,1.658-5.816,4.25-11.439,4.943c0.119,1.574,0.214,3.16,0.285,4.752
				c2.974-0.754,8.081-2.301,11.342-4.676C344.63,78.387,344.567,76.703,344.502,74.918z"/>
			<path fill="#893A95" d="M331.977,69.494c0.19,1.43,0.368,2.887,0.531,4.369c3.255-0.795,8.455-2.406,11.793-5.145
				c-0.05-1.645-0.098-3.33-0.142-5.047C341.704,65.408,336.614,68.662,331.977,69.494z"/>
			<path fill="#893A95" d="M343.908,44.793c0.003-1.152,0.01-2.289,0.021-3.398l-16.961,2.291c0,0,1.006,3.705,2.228,9.57
				C332.952,52.072,340.116,49.34,343.908,44.793z"/>
			<path fill="#893A95" d="M331.17,63.984c3.685-1.27,9.891-3.727,12.848-6.723c-0.036-2-0.064-4.006-0.085-5.99
				c-2.14,1.963-7.091,5.902-13.663,7.461C330.575,60.391,330.877,62.148,331.17,63.984z"/>
			<path fill="#893A95" d="M333.469,89.1c0.009,0.908,0.011,1.818,0,2.721c0,0,5.476,1.439,11.671-1.576c0,0-0.08-1.635-0.202-4.381
				C342.185,86.891,337.651,88.424,333.469,89.1z"/>
		</g>
		<path fill="#B667C6" d="M343.929,41.395c0.156,1.172-3.511,2.635-8.192,3.266c-4.685,0.633-8.611,0.195-8.769-0.975
			c-0.157-1.17,3.512-2.633,8.193-3.266C339.843,39.787,343.77,40.225,343.929,41.395z"/>
		<g>
			<path fill="#DDDFDD" d="M334.616,43.225c-1.949-1.244-0.903-8.527-0.427-11.445h1.26c-0.746,4.568-0.667,9.627,0.01,10.129
				L334.616,43.225z"/>
		</g>
		<path fill="#FAAD48" d="M328.078,22.361c-0.679,4.389,1.53,8.32,5.22,9.529c3.689,1.209,8.632-1.047,9.184-5.451
			c0.596-4.764-3.832-9.029-1.782-15.316C337.01,9.914,328.814,17.602,328.078,22.361z"/>
		<path fill="#CE5F15" d="M332.281,26.426c-0.239,1.545,0.538,2.928,1.837,3.354s3.039-0.367,3.233-1.918
			c0.209-1.678-1.349-3.178-0.627-5.391C335.425,22.045,332.541,24.75,332.281,26.426z"/>
	</g>
	<g>
		<path fill="#ED3181" d="M348.839,34.822c0,0,8.922,24.352,10.584,47.406c0,0,5.578,0.967,11.494-2.568
			c0,0-3.858-28.277-5.379-48.566L348.839,34.822z"/>
		<g>
			<path fill="#BC1D69" d="M368.973,64.443c-1.798,1.818-5.432,4.73-10.976,5.904c0.253,1.557,0.485,3.131,0.69,4.709
				c2.897-1.006,7.856-2.984,10.901-5.629C369.398,67.889,369.19,66.217,368.973,64.443z"/>
			<path fill="#BC1D69" d="M356.029,60.109c0.313,1.406,0.615,2.846,0.904,4.311c3.174-1.072,8.22-3.123,11.308-6.135
				c-0.188-1.633-0.382-3.309-0.568-5.018C365.373,55.207,360.58,58.885,356.029,60.109z"/>
			<path fill="#BC1D69" d="M365.808,34.479c-0.096-1.148-0.188-2.279-0.27-3.385l-16.699,3.729c0,0,1.318,3.607,3.035,9.346
				C355.515,42.67,362.419,39.334,365.808,34.479z"/>
			<path fill="#BC1D69" d="M354.757,54.689c3.562-1.58,9.537-4.555,12.227-7.797c-0.206-1.988-0.408-3.982-0.598-5.959
				c-1.961,2.141-6.559,6.484-12.973,8.598C353.857,51.158,354.307,52.885,354.757,54.689z"/>
			<path fill="#BC1D69" d="M359.19,79.518c0.088,0.904,0.169,1.809,0.233,2.711c0,0,5.578,0.967,11.494-2.568
				c0,0-0.22-1.621-0.578-4.35C367.687,76.57,363.302,78.484,359.19,79.518z"/>
		</g>
		<path fill="#D63E8E" d="M365.539,31.094c0.26,1.15-3.27,2.924-7.883,3.951c-4.613,1.031-8.56,0.932-8.816-0.223
			c-0.259-1.154,3.27-2.922,7.883-3.949C361.335,29.838,365.282,29.938,365.539,31.094z"/>
		<g>
			<path fill="#DDDFDD" d="M355.91,32.742c0.063-4.967-3.309-8.191-3.339-8.217l1.229-0.381c0.154,0.117,3.744,2.861,3.674,8.619
				L355.91,32.742z"/>
		</g>
		<path fill="#FAAD48" d="M346.343,15.156c-0.586,4.4,1.703,8.283,5.422,9.416c3.713,1.131,8.608-1.227,9.066-5.643
			c0.495-4.777-4.021-8.947-2.107-15.273C355.011,2.525,346.979,10.383,346.343,15.156z"/>
		<path fill="#CE5F15" d="M350.632,18.725c-0.194,1.459,0.564,2.744,1.796,3.119c1.23,0.375,2.853-0.404,3.005-1.869
			c0.162-1.582-1.333-2.965-0.699-5.061C353.503,14.539,350.843,17.143,350.632,18.725z"/>
	</g>
	<g>
		<path fill="#ED3181" d="M252.278,52.709c0,0,17.462,19.176,27.71,39.895c0,0,5.531-1.213,9.674-6.721
			c0,0-14.257-24.723-23.33-42.936L252.278,52.709z"/>
		<g>
			<path fill="#BC1D69" d="M282.114,72.529c-0.978,2.361-3.242,6.432-7.934,9.611c0.825,1.348,1.633,2.717,2.42,4.102
				c2.303-2.025,6.145-5.73,7.967-9.33C283.808,75.559,282.983,74.088,282.114,72.529z"/>
			<path fill="#BC1D69" d="M268.493,73.406c0.821,1.184,1.643,2.402,2.463,3.65c2.536-2.191,6.43-5.998,8.153-9.953
				c-0.789-1.441-1.603-2.92-2.421-4.43C275.293,65.338,272.242,70.553,268.493,73.406z"/>
			<path fill="#BC1D69" d="M267.863,45.98c-0.524-1.027-1.035-2.039-1.531-3.033l-14.054,9.762c0,0,2.585,2.842,6.343,7.506
				C261.425,57.453,266.558,51.756,267.863,45.98z"/>
			<path fill="#BC1D69" d="M265.267,68.869c2.701-2.809,7.108-7.822,8.373-11.84c-0.94-1.762-1.881-3.535-2.802-5.293
				c-1.009,2.725-3.624,8.484-8.766,12.867C263.098,65.939,264.168,67.367,265.267,68.869z"/>
			<path fill="#BC1D69" d="M278.751,90.182c0.422,0.805,0.838,1.611,1.238,2.422c0,0,5.531-1.213,9.674-6.721
				c0,0-0.817-1.418-2.177-3.809C285.504,84.244,282.166,87.674,278.751,90.182z"/>
		</g>
		
			<ellipse transform="matrix(0.8213 -0.5705 0.5705 0.8213 19.0485 156.4717)" fill="#D63E8E" cx="259.305" cy="47.828" rx="8.556" ry="2.139"/>
		<path fill="#FAAD48" d="M242.542,35.443c1.117,4.299,4.705,7.027,8.574,6.672c3.866-0.355,7.507-4.389,6.263-8.65
			c-1.344-4.609-7.101-6.764-7.72-13.348C245.793,20.475,241.325,30.785,242.542,35.443z"/>
	</g>
	<g>
		<path fill="#2A4199" d="M307.9,29.301c0,0,8.061,24.648,8.914,47.748c0,0,5.541,1.16,11.579-2.162c0,0-2.866-28.395-3.67-48.727
			L307.9,29.301z"/>
		<g>
			<path fill="#262961" d="M326.984,59.611c-1.86,1.756-5.597,4.537-11.177,5.514c0.198,1.566,0.373,3.146,0.524,4.73
				c2.931-0.9,7.956-2.705,11.092-5.24C327.286,63.068,327.137,61.391,326.984,59.611z"/>
			<path fill="#262961" d="M314.2,54.826c0.262,1.416,0.513,2.863,0.749,4.336c3.211-0.957,8.325-2.83,11.52-5.73
				c-0.132-1.639-0.264-3.32-0.394-5.033C323.708,50.254,318.791,53.762,314.2,54.826z"/>
			<path fill="#262961" d="M324.873,29.555c-0.056-1.15-0.108-2.285-0.151-3.395L307.9,29.301c0,0,1.192,3.65,2.707,9.447
				C314.296,37.379,321.313,34.287,324.873,29.555z"/>
			<path fill="#262961" d="M313.117,49.361c3.617-1.449,9.692-4.215,12.494-7.359c-0.135-1.994-0.267-3.998-0.386-5.979
				c-2.038,2.072-6.785,6.254-13.27,8.141C312.341,45.805,312.733,47.545,313.117,49.361z"/>
			<path fill="#262961" d="M316.678,74.332c0.055,0.906,0.104,1.814,0.136,2.717c0,0,5.541,1.16,11.579-2.162
				c0,0-0.164-1.629-0.424-4.367C325.271,71.686,320.821,73.445,316.678,74.332z"/>
		</g>
		
			<ellipse transform="matrix(0.983 -0.1835 0.1835 0.983 0.2834 58.5231)" fill="#40488E" cx="316.311" cy="27.73" rx="8.556" ry="2.14"/>
		<g>
			<path fill="#DDDFDD" d="M315.85,27.73c-0.225-5.605-3.86-12.502-3.895-12.57l1.302-0.693c0.157,0.293,3.831,7.258,4.068,13.205
				L315.85,27.73z"/>
		</g>
		<path fill="#FAAD48" d="M321.432,12.449c0.557,4.404-1.763,8.273-5.485,9.379c-3.724,1.102-8.601-1.291-9.028-5.711
			c-0.459-4.777,4.087-8.916,2.215-15.258C312.857-0.244,320.831,7.672,321.432,12.449z"/>
	</g>
	<g>
		<path fill="#ED3181" d="M252.278,52.709c0,0,17.462,19.176,27.71,39.895c0,0,5.531-1.213,9.674-6.721
			c0,0-14.257-24.723-23.33-42.936L252.278,52.709z"/>
		<g>
			<path fill="#BC1D69" d="M282.114,72.529c-0.978,2.361-3.242,6.432-7.934,9.611c0.825,1.348,1.633,2.717,2.42,4.102
				c2.303-2.025,6.145-5.73,7.967-9.33C283.808,75.559,282.983,74.088,282.114,72.529z"/>
			<path fill="#BC1D69" d="M268.493,73.406c0.821,1.184,1.643,2.402,2.463,3.65c2.536-2.191,6.43-5.998,8.153-9.953
				c-0.789-1.441-1.603-2.92-2.421-4.43C275.293,65.338,272.242,70.553,268.493,73.406z"/>
			<path fill="#BC1D69" d="M267.863,45.98c-0.524-1.027-1.035-2.039-1.531-3.033l-14.054,9.762c0,0,2.585,2.842,6.343,7.506
				C261.425,57.453,266.558,51.756,267.863,45.98z"/>
			<path fill="#BC1D69" d="M265.267,68.869c2.701-2.809,7.108-7.822,8.373-11.84c-0.94-1.762-1.881-3.535-2.802-5.293
				c-1.009,2.725-3.624,8.484-8.766,12.867C263.098,65.939,264.168,67.367,265.267,68.869z"/>
			<path fill="#BC1D69" d="M278.751,90.182c0.422,0.805,0.838,1.611,1.238,2.422c0,0,5.531-1.213,9.674-6.721
				c0,0-0.817-1.418-2.177-3.809C285.504,84.244,282.166,87.674,278.751,90.182z"/>
		</g>
		
			<ellipse transform="matrix(0.8213 -0.5705 0.5705 0.8213 19.0485 156.4717)" fill="#D63E8E" cx="259.305" cy="47.828" rx="8.556" ry="2.139"/>
		<g>
			<path fill="#DDDFDD" d="M258.041,48.115c-1.818-4.625-6.363-6.422-6.402-6.432l1.203-0.732c0.184,0.047,4.546,1.232,6.654,6.592
				L258.041,48.115z"/>
		</g>
		<path fill="#FAAD48" d="M242.542,35.443c1.117,4.299,4.705,7.027,8.574,6.672c3.866-0.355,7.507-4.389,6.263-8.65
			c-1.344-4.609-7.101-6.764-7.72-13.348C245.793,20.475,241.325,30.785,242.542,35.443z"/>
		<path fill="#CE5F15" d="M248.083,37.674c0.366,1.404,1.538,2.297,2.802,2.178c1.265-0.115,2.454-1.432,2.048-2.826
			c-0.44-1.506-2.322-2.209-2.523-4.361C249.146,32.781,247.686,36.15,248.083,37.674z"/>
	</g>
	<g>
		<path fill="#2A4199" d="M307.9,29.301c0,0,8.061,24.648,8.914,47.748c0,0,5.541,1.16,11.579-2.162c0,0-2.866-28.395-3.67-48.727
			L307.9,29.301z"/>
		<g>
			<path fill="#262961" d="M326.984,59.611c-1.86,1.756-5.597,4.537-11.177,5.514c0.198,1.566,0.373,3.146,0.524,4.73
				c2.931-0.9,7.956-2.705,11.092-5.24C327.286,63.068,327.137,61.391,326.984,59.611z"/>
			<path fill="#262961" d="M314.2,54.826c0.262,1.416,0.513,2.863,0.749,4.336c3.211-0.957,8.325-2.83,11.52-5.73
				c-0.132-1.639-0.264-3.32-0.394-5.033C323.708,50.254,318.791,53.762,314.2,54.826z"/>
			<path fill="#262961" d="M324.873,29.555c-0.056-1.15-0.108-2.285-0.151-3.395L307.9,29.301c0,0,1.192,3.65,2.707,9.447
				C314.296,37.379,321.313,34.287,324.873,29.555z"/>
			<path fill="#262961" d="M313.117,49.361c3.617-1.449,9.692-4.215,12.494-7.359c-0.135-1.994-0.267-3.998-0.386-5.979
				c-2.038,2.072-6.785,6.254-13.27,8.141C312.341,45.805,312.733,47.545,313.117,49.361z"/>
			<path fill="#262961" d="M316.678,74.332c0.055,0.906,0.104,1.814,0.136,2.717c0,0,5.541,1.16,11.579-2.162
				c0,0-0.164-1.629-0.424-4.367C325.271,71.686,320.821,73.445,316.678,74.332z"/>
		</g>
		
			<ellipse transform="matrix(0.983 -0.1835 0.1835 0.983 0.2834 58.5231)" fill="#40488E" cx="316.311" cy="27.73" rx="8.556" ry="2.14"/>
		<g>
			<path fill="#DDDFDD" d="M315.85,27.73c-0.225-5.605-3.86-12.502-3.895-12.57l1.302-0.693c0.157,0.293,3.831,7.258,4.068,13.205
				L315.85,27.73z"/>
		</g>
		<path fill="#FAAD48" d="M321.432,12.449c0.557,4.404-1.763,8.273-5.485,9.379c-3.724,1.102-8.601-1.291-9.028-5.711
			c-0.459-4.777,4.087-8.916,2.215-15.258C312.857-0.244,320.831,7.672,321.432,12.449z"/>
		<path fill="#CE5F15" d="M316.969,16.592c0.179,1.418-0.568,2.664-1.766,3.02c-1.2,0.355-2.77-0.414-2.908-1.838
			c-0.148-1.539,1.316-2.871,0.713-4.914C314.207,12.504,316.776,15.053,316.969,16.592z"/>
	</g>
	<g>
		<circle fill="#101082" cx="364.343" cy="240.283" r="10.84"/>
		<path fill="#4E4EB7" d="M364.344,232.867c3.923,0,7.342,2.141,9.171,5.312c-0.965-4.176-4.699-7.295-9.171-7.295
			c-4.47,0-8.206,3.117-9.168,7.295C357.001,235.008,360.419,232.867,364.344,232.867z"/>
	</g>
	<g>
		<circle fill="#101082" cx="297.578" cy="244.758" r="10.839"/>
		<path fill="#4E4EB7" d="M297.578,237.342c3.924,0,7.341,2.143,9.17,5.314c-0.963-4.178-4.699-7.297-9.17-7.297
			c-4.47,0-8.205,3.119-9.168,7.297C290.236,239.484,293.655,237.342,297.578,237.342z"/>
	</g>
	<g>
		<circle fill="#101082" cx="249.213" cy="171.346" r="10.84"/>
		<path fill="#4E4EB7" d="M249.213,163.932c3.923,0,7.342,2.139,9.17,5.312c-0.963-4.178-4.698-7.297-9.17-7.297
			c-4.47,0-8.204,3.117-9.169,7.297C241.872,166.07,245.289,163.932,249.213,163.932z"/>
	</g>
	<g>
		<circle fill="#101082" cx="318.146" cy="158.406" r="10.84"/>
		<path fill="#4E4EB7" d="M318.146,150.988c3.924,0,7.342,2.143,9.169,5.316c-0.962-4.18-4.697-7.299-9.169-7.299
			c-4.471,0-8.205,3.119-9.169,7.299C310.804,153.131,314.222,150.988,318.146,150.988z"/>
	</g>
	<g>
		<circle fill="#101082" cx="374.484" cy="158.406" r="10.839"/>
		<path fill="#4E4EB7" d="M374.483,150.988c3.926,0,7.343,2.143,9.173,5.316c-0.965-4.18-4.699-7.299-9.173-7.299
			c-4.469,0-8.204,3.119-9.168,7.299C367.142,153.131,370.56,150.988,374.483,150.988z"/>
	</g>
	<g>
		<circle fill="#101082" cx="249.212" cy="255.598" r="10.839"/>
		<path fill="#4E4EB7" d="M249.213,248.182c3.923,0,7.341,2.143,9.17,5.314c-0.963-4.178-4.698-7.297-9.17-7.297
			c-4.471,0-8.204,3.117-9.169,7.297C241.872,250.324,245.289,248.182,249.213,248.182z"/>
	</g>
	<g>
		<circle fill="#101082" cx="209.671" cy="266.437" r="10.838"/>
		<path fill="#4E4EB7" d="M209.67,259.023c3.923,0,7.341,2.141,9.171,5.312c-0.965-4.178-4.7-7.296-9.171-7.296
			s-8.205,3.117-9.168,7.296C202.329,261.164,205.748,259.023,209.67,259.023z"/>
	</g>
	<path fill="#D88D4A" d="M400,82.48l-8.067-1.422L271.86,91.512l0.304,30.465l-4.155,0.643l0.788,5.082
		c2.281-0.609,4.599-1.406,6.928-2.402c5.07-2.168,8.08-5.662,11.266-9.361c1.512-1.754,3.694-4.021,6.431-6.445
		c2.246,4.141,8.004,10.244,22.536,10.783c0.335,0.014,0.665,0.02,0.991,0.02c8.43,0,14.061-4.072,20.011-8.373
		c5.442-3.934,11.866-9.189,21.405-11.875c1.623,6.359,8.34,16.428,23.937,16.428c1.282,0,2.624-0.068,4.025-0.211
		c6.889-0.706,10.929-2.335,13.674-4.271V82.48z"/>
	<path fill="#327510" d="M400,75.023c-3.49-1.656-6.623-3.428-9.175-5.109c-7.06-4.652-13.728-9.045-22.586-9.85
		c-12.309-1.125-15.592,2.812-18.768,6.619c-2.445,2.928-4.756,5.695-12.12,7.047c-7.411,1.363-12.425-0.904-17.732-3.303
		c-6.66-3.012-13.546-6.123-23.83-0.533c-6.208,3.104-9.268,8.746-12.229,14.201c-0.322,0.596-0.661,1.205-1.01,1.82
		c-6.572-1.256-29.194-4.75-40.197,4.193c-4.18,3.4-6.248,8.135-6.148,14.074c0.132,7.693,3.132,13.658,8.674,17.25
		c3.702,2.398,8.369,3.598,13.558,3.598c5.37,0,11.296-1.285,17.287-3.846c5.07-2.17,8.08-5.662,11.266-9.361
		c1.512-1.754,3.694-4.023,6.431-6.445c2.246,4.141,8.004,10.244,22.536,10.781c0.335,0.014,0.665,0.02,0.991,0.02
		c8.43,0,14.061-4.07,20.011-8.371c5.442-3.936,11.866-9.189,21.405-11.875c1.623,6.359,8.34,16.428,23.937,16.428
		c1.282,0,2.624-0.068,4.025-0.211c6.889-0.706,10.929-2.335,13.674-4.271V75.023z"/>
	<path fill="#4DA326" d="M400,80.247c-4.568-2.091-8.587-4.104-11.858-6.259c-6.533-4.307-12.705-8.373-20.346-9.066
		c-9.761-0.889-11.783,1.533-14.582,4.887c-2.621,3.139-5.882,7.049-14.979,8.721c-8.912,1.637-15.134-1.176-20.624-3.658
		c-6.336-2.863-11.339-5.125-19.567-0.654c-4.907,2.457-7.476,7.193-10.197,12.205c-3.34,6.156-11.939,13.967-17.42,11.721
		c3.74-0.959,6.804-4.115,9.342-7.762c-7.657-1.275-25.862-3.383-34.342,3.516c-2.998,2.439-4.418,5.777-4.346,10.203
		c0.104,6.08,2.275,10.535,6.45,13.24c6.078,3.939,16.146,3.691,26.275-0.639c4.031-1.725,6.56-4.662,9.488-8.061
		c5.521-6.41,21.787-21.916,40.494-18.963c-10.789,2.131-19.82,7.342-26.51,12.516c1.143,2.703,5.193,8.588,18.858,9.096
		c7.307,0.262,12.01-3.129,17.964-7.434c8.76-6.334,31.077-17.602,43.723-9.311c-5.564-0.596-10.408-0.395-14.689,0.322
		c0.895,3.016,5.406,14.205,22.694,12.43c8.925-0.913,11.846-3.346,14.17-6.074V80.247z"/>
	<path fill="#92D371" d="M259.305,92.164c0,0-19.695,0.316-15.07,16.502C244.235,108.666,243.304,99.516,259.305,92.164z"/>
	<path fill="#92D371" d="M293.363,81.059c3.447-6.141,9.064-9.141,17.436-7.176C310.799,73.883,299.727,74.271,293.363,81.059z"/>
	<path fill="#92D371" d="M354.392,72.914c2.932-5.23,7.885-10.156,28.381,0C382.773,72.914,357.707,65.879,354.392,72.914z"/>
	<path fill="#D77927" d="M399.899,125.165c-71.07,6.518-118.074,10.673-129.628,10.927l0.766,4.732
		c31.293,0.532,81.264-3.698,128.862-8.55V125.165z"/>
	<path fill="#D88D4A" d="M400,173.992l-15.196,0.887l-46.247-1.207l-25.912,2.633l-31.216-6.949l-29.016,22.885l-4.943,9.105
		l1.988,16.234c7.896-3.623,11.231-9.375,13.964-14.104c2.855-4.941,4.742-8.209,10.721-8.566c5.841-0.355,8.941,2.262,12.537,5.281
		c4.545,3.816,9.699,8.143,19.694,4.611c6.723-2.375,14.423-7.342,21.287-12.773c4.791,6,16.225,19.396,29.806,19.396
		c0.952,0,1.917-0.066,2.89-0.205c9.094-1.301,12.383-7.527,15.021-12.529c2.09-3.955,3.895-7.373,8.09-8.812
		c4.62-1.578,6.643-0.455,9.996,1.408c1.825,1.015,3.881,2.153,6.536,2.915V173.992z"/>
	<path fill="#327510" d="M399.899,151.575c-6.204,1.752-10.054,4.086-14.431,6.747c-2.008,1.223-4.947,3.453-8.545,5.973
		c-1.284-0.771-2.543-1.541-3.773-2.293c-15.06-9.223-28.064-17.188-47.284-1.357c-8.044,6.154-14.65,2.141-20.589-3.115
		c-0.647-0.57-1.155-1.021-1.62-1.352c-16.221-11.588-25.927-1.877-35.317,7.514c-1.085,1.088-2.194,2.195-3.331,3.293
		c-3.18,3.072-7.331,6.029-11.549,8.648c-15.586-5.709-25.719-1.248-30.398,1.975c-5.376,3.699-8.848,9.301-8.848,14.271
		c0,5.459,3.56,13.553,10.367,18.459c2.958,2.131,7.309,4.211,13.024,4.211c2.606,0,5.495-0.432,8.664-1.488
		c10.251-3.416,14.079-10.043,17.154-15.367c2.855-4.941,4.742-8.207,10.721-8.564c5.841-0.355,8.941,2.26,12.537,5.281
		c4.545,3.814,9.699,8.143,19.694,4.611c6.723-2.373,14.423-7.342,21.287-12.775c4.791,6.002,16.225,19.398,29.806,19.398
		c0.952,0,1.917-0.068,2.89-0.205c9.094-1.301,12.383-7.529,15.021-12.529c2.09-3.957,3.895-7.375,8.09-8.812
		c4.62-1.578,6.643-0.455,9.996,1.406c1.803,1.001,3.828,2.126,6.435,2.888V151.575z"/>
	<path fill="#4DA326" d="M399.899,157.94c-4.432,1.44-7.422,3.257-11.262,5.593c-5.384,3.273-14.636,8.303-32.373,11.984
		c5.453-1.859,10.573-4.648,15.066-7.486c-0.449-0.277-0.919-0.559-1.364-0.83c-14.669-8.984-24.36-14.916-40.31-1.781
		c-13.228,10.117-24.264,0.354-28.418-3.322c-0.453-0.398-0.919-0.812-1.125-0.959c-11.48-8.199-17.31-3.287-27.461,6.863
		c-1.112,1.113-2.243,2.244-3.408,3.367c-11.295,10.906-34.051,13.996-34.939,14.268c0.111-0.035,6.212-2.654,13.389-6.627
		c-10.888-2.711-17.831,1.316-21.176,3.619c-4.266,2.934-6.208,6.854-6.208,9.25c0,3.266,2.428,9.617,7.837,13.512
		c4.583,3.307,10.035,3.939,16.195,1.885c8.057-2.684,10.977-7.74,13.802-12.631c2.992-5.18,6.382-11.049,15.635-11.604
		c8.255-0.482,13.008,3.494,16.822,6.699c4.231,3.555,7.029,5.904,13.743,3.531c14.907-5.262,41.834-26.184,42.063-26.361
		c-1.403,3.117-6.932,9.254-14.041,15.436c10.054,12.443,19.166,18.191,27.125,17.059c6.019-0.861,7.995-4.604,10.495-9.342
		c2.355-4.457,5.022-9.512,11.507-11.732c7.185-2.461,11.3-0.172,14.93,1.846c1.133,0.629,2.247,1.243,3.475,1.753V157.94z"/>
	<path fill="#92D371" d="M277.381,165.58c6.582-5.318,13.388-10.004,23.763-1.303C301.144,164.277,293.221,158.182,277.381,165.58z"
		/>
	<path fill="#92D371" d="M235.95,180.957c-3.865-1.301-12.306,3.324-13.3,12.51c0,0,4.098-10.002,13.3-12.176"/>
	<path fill="#92D371" d="M335.283,163.943c5.466-3.793,12.605-8.219,29.229,1.637C355.587,163.943,351.347,158.59,335.283,163.943z"
		/>
	<path fill="#D88D4A" d="M399.899,249.935l-0.265-0.085l-78.408,11.638l-69.883,14.127l-37.417,4.959l-4.255,6.172
		c0.268,1.723,0.989,7.438,2.024,15.438c1.038-1.037,2.048-2.107,3.036-3.156c5.924-6.297,12.048-12.805,21.196-11.5
		c9.422,1.346,13.448,4.648,17,7.566c4.204,3.453,8.179,6.715,18.305,4.941c8.979-1.572,12.163-6.148,14.72-9.83
		c2.788-4.01,5-7.164,14.601-6.973c9.123,0.193,15.152,2.084,20.983,3.916c6.851,2.152,13.322,4.184,23.395,2.984
		c12.589-1.496,17.663-5.533,22.14-9.094c4.308-3.43,7.789-6.197,18.17-5.766c-0.896,4.512-1.09,9.096,1.49,12.104
		c1.897,2.213,4.949,3.139,9.084,2.762c1.401-0.128,2.772-0.458,4.083-0.937V249.935z"/>
	<path fill="#92D371" d="M400,159.614c-2.915,1.041-5.534,2.472-8.286,3.884c2.926-1.03,5.695-1.8,8.286-2.371V159.614z"/>
	<path fill="#327510" d="M399.899,234.17c-7.097,0.738-12,3.005-16.77,5.223c-4.593,2.135-9.347,4.344-16.394,5.402
		c-8.533,1.281-11.807-0.062-16.338-1.916c-4.063-1.662-9.123-3.73-19.034-4.152c-10.831-0.471-22.673,4.496-34.042,10.52
		c-3.623-2.65-14.057-9.018-26.03-4.77c-8.089,2.869-11.718,7.764-14.633,11.695c-2.326,3.14-3.763,4.941-6.235,5.492
		c-2.332,0.52-5.761-0.283-9.39-1.131c-7.055-1.654-15.834-3.707-24.56,1.408c-4.36,2.555-6.947,5.984-8.463,9.477
		c-11.8-3.385-21.312,2.51-24.692,10.287c-2.874,6.609-1.599,15.615,7.725,20.824c2.528,1.414,4.867,2.014,7.053,2.01
		c6.656,0,11.885-5.553,16.636-10.602c5.924-6.297,12.048-12.807,21.196-11.502c9.422,1.346,13.448,4.65,17,7.566
		c4.204,3.453,8.179,6.715,18.305,4.943c8.979-1.572,12.163-6.15,14.72-9.832c2.788-4.008,5-7.162,14.601-6.973
		c9.123,0.195,15.152,2.088,20.983,3.918c6.851,2.152,13.322,4.182,23.395,2.984c12.589-1.496,17.663-5.535,22.14-9.096
		c4.308-3.428,7.789-6.195,18.17-5.764c-0.896,4.512-1.09,9.096,1.49,12.104c1.897,2.213,4.949,3.139,9.084,2.762
		c1.401-0.128,2.772-0.458,4.083-0.937V234.17z"/>
	<path fill="#D77927" d="M399.899,223.573c-69.014-2.407-127.458-6.744-150.686-6.628l0.832,6.428
		c32.942,0.124,91.794,2.536,149.854,4.594V223.573z"/>
	<path fill="#4DA326" d="M400,264.011c-0.033-0.021-0.066-0.044-0.099-0.064l-5.497-3.48l5.596-0.862V239.05
		c-6.005,0.676-10.177,2.611-14.812,4.765c-4.909,2.281-9.985,4.643-17.729,5.803c-9.86,1.48-14.053-0.236-18.908-2.223
		c-3.906-1.598-8.333-3.41-17.393-3.795c-13.589-0.584-29.828,8.766-44.169,17.013c-6.314,3.629-21.57,8.699-27.256,8.699
		c5.267-2.385,18.616-9.359,24.826-12.927c2.58-1.482,5.225-3,7.903-4.492c-3.988-2.41-11.476-5.682-19.538-2.818
		c-6.689,2.373-9.695,6.426-12.347,10.003c-2.432,3.279-4.728,6.377-9.098,7.348c-3.417,0.762-7.37-0.164-11.557-1.146
		c-6.536-1.527-13.938-3.262-20.983,0.871c-11.241,6.588-12.609,20.42-12.621,20.559c0.03-0.352-0.903-5.094,0.232-10.639
		c-9.45-2.664-16.323,1.973-18.759,7.578c-1.941,4.465-1.48,10.648,5.63,14.623c6.58,3.68,10.825-0.309,17.756-7.676
		c6.464-6.869,13.789-14.652,25.44-12.99c10.774,1.541,15.559,5.471,19.404,8.629c3.882,3.189,6.445,5.295,14.372,3.904
		c6.974-1.219,9.097-4.273,11.553-7.807c3.039-4.371,6.478-9.318,18.711-9.066c9.817,0.209,16.47,2.297,22.341,4.139
		c6.615,2.078,12.328,3.869,21.358,2.795c11.213-1.334,15.518-4.758,19.678-8.068c5.082-4.045,9.879-7.869,24.425-6.629l2.855,0.24
		l-0.696,2.781c-0.516,2.068-2.091,8.363-0.184,10.588c0.809,0.945,2.47,1.309,4.935,1.082c1.61-0.148,3.206-0.688,4.631-1.486
		V264.011z"/>
	<path fill="#92D371" d="M204.306,278.99c-11.048-3.803-17.389,5.006-15.667,11.049C188.639,290.039,190.36,280.982,204.306,278.99z
		"/>
	<path fill="#92D371" d="M212.274,274.644c8.693-12.678,19.198-10.322,25.537-8.783C237.811,265.861,222.96,264.501,212.274,274.644
		z"/>
	<path fill="#92D371" d="M264.522,256.352c5.748-6.158,14.67-9.326,25.355-4.799C289.878,251.553,275.933,248.654,264.522,256.352z"
		/>
	<path fill="#92D371" d="M312.065,249.471c10.958-3.623,19.833-6.701,35.316-1.088C347.381,248.383,337.785,244.309,312.065,249.471
		z"/>
	<path fill="#92D371" d="M399.899,240.975c-4.954,0.698-9.269,2.304-12.498,4.42c4.315-1.164,8.521-1.794,12.498-2.066V240.975z"/>
	<path fill="#D77927" d="M400,330.532c-74.904,6.812-145.368,12.989-181.788,15.265c0.328,2.121,0.66,4.234,0.995,6.335
		c40.463-1.789,110.415-7.826,180.793-14.407V330.532z"/>
	<polygon fill="#D77927" points="399.899,392.039 226.201,392.039 230.221,398.9 399.899,398.9 	"/>
</g>
</svg>
