<?xml version="1.0" encoding="utf-8"?>
<!-- Generator: Adobe Illustrator 16.0.0, SVG Export Plug-In . SVG Version: 6.00 Build 0)  -->
<!DOCTYPE svg PUBLIC "-//W3C//DTD SVG 1.1//EN" "http://www.w3.org/Graphics/SVG/1.1/DTD/svg11.dtd">
<svg version="1.1" id="Layer_1" xmlns="http://www.w3.org/2000/svg" xmlns:xlink="http://www.w3.org/1999/xlink" x="0px" y="0px"
	 width="500px" height="400px" viewBox="0 0 500 400" enable-background="new 0 0 500 400" xml:space="preserve">
<g>
	<g>
		<path fill="#F0EEED" d="M99.961,324.359c4.148-14.523-1.098-37.57-7.68-41.135c-6.58-3.564-16.18,1.646-19.471,2.468
			c-3.289,0.824-17.002-4.113-27.697,4.937c-10.693,9.05-8.773,24.133-7.404,26.6c1.371,2.469,11.793,9.327,5.484,13.712
			c-6.307,4.388-13.182,15.901-3.289,15.359c20.018-1.099,20.609,8.772,31.029,9.048C81.354,355.621,90.635,356.994,99.961,324.359z
			"/>
		<path fill="#E2E3EE" d="M92.281,283.225c-1.98-1.073-4.236-1.343-6.51-1.185c1.967,11.134,5.133,15.578-0.537,26.84
			c-4.221,8.38-4.318,19.353-13.887,23.337c-4.328,1.802-8.049-0.903-11.732,0.198c-3.016,0.901-5.096,3.489-7.824,5.478
			c-3.984,2.901-11.451,2.761-16.83,4.675c-0.215,2.317,1.084,3.943,4.943,3.732c20.018-1.099,20.609,8.772,31.029,9.048
			c10.42,0.273,19.701,1.646,29.027-30.988C104.109,309.836,98.863,286.789,92.281,283.225z"/>
	</g>
	<g>
		<path fill="#CDDC44" d="M203.699,171.412c0,0,5.439-25.275,47.031-54.391c41.594-29.115,93.744-36.793,93.744-36.793
			s5.119,2.879,5.758,8.317c0,0-25.274,49.591-9.598,84.465l-47.352,18.236l-80.305-7.357L203.699,171.412z"/>
		<path fill="#ABCE19" d="M315.657,86.972c-9.074,2.674-19.594,6.277-30.522,11.042c4.133,44.149,27.993,68.454,43.315,79.69
			l12.185-4.693c-8.178-18.193-5.209-40.392-0.5-57.467C328.476,107.211,320.364,95.352,315.657,86.972z"/>
		<path fill="#F69331" d="M349.742,86.972c-0.236-0.525-2.248-5.249-0.211-9.371c1.17-2.374,3.361-3.955,6.514-4.698
			c5.028-1.188,8.874,1.226,11.683,2.988c3.486,2.186,3.977,2.232,5.277,0.517c1.057-1.392,1.771-2.749,2.402-3.943
			c3.125-5.92,5.906-8.591,16.214-3.63l-1.922,5.53c-8.204-3.949-8.575-3.242-10.376,0.166c-0.674,1.28-1.514,2.871-2.793,4.557
			c-3.885,5.117-8.088,2.48-11.158,0.556c-2.5-1.57-5.082-3.194-8.312-2.432c-1.828,0.433-2.992,1.201-3.559,2.351
			c-0.955,1.935-3.645,8.148-3.27,8.984L349.742,86.972z"/>
		<path fill="#ABCE19" d="M227.264,136.385c1.502,22.817,8.334,39.558,14.311,50.126l51.709,4.736l10.05-3.866
			c-30.788-22.098-44.091-58.893-48.298-73.269c-1.447,0.944-2.881,1.913-4.305,2.909
			C241.084,123.773,233.404,130.314,227.264,136.385z"/>
		<path fill="#F69331" d="M342.52,80.354c-0.432-0.385-10.453-8.465-5.113-18.187c3.268-5.945,7.928-5.298,11.014-4.865
			c2.529,0.354,3.48,0.376,4.207-0.742c0.742-1.141,1.045-2.422,1.363-3.78c1.062-4.516,2.828-9.007,12.325-9.007
			c0.127,0,0.252,0,0.379,0.003l-0.189,5.499c-7.955-0.046-8.504,0.961-9.282,4.267c-0.352,1.502-0.752,3.201-1.811,4.829
			c-1.945,2.993-4.996,2.563-7.451,2.223c-3.062-0.431-5.479-0.768-7.643,3.174c-4.086,7.439,4.828,16.881,4.914,16.958
			L342.52,80.354z"/>
		<path fill="#F69331" d="M346.221,81.261c-0.436-0.521-5.338-3.019-4.176-7.847c0.438-1.818,1.785-4.336,5.721-6.007
			c4.986-2.121,8.633-1.625,11.294-1.262c2.639,0.357,3.23,0.38,4.234-1.131c0.625-0.943,0.434-1.608-0.32-3.418
			c-1.609-3.858-2.471-8.043,6.023-13.064l4.076,4.673c-5.887,3.48-7.07,4.15-6.014,6.686c0.807,1.933,1.91,4.579-0.076,7.573
			c-2.572,3.876-5.73,3.446-8.518,3.07c-2.396-0.325-5.103-0.692-8.972,0.949c-1.82,0.773-2.848,1.744-3.143,2.967
			c-0.551,2.283,1.426,8.626,2.16,9.502L346.221,81.261z"/>
		<path opacity="0.5" fill="#F1F2F2" d="M341.867,83.357c0,0-104.035,15.549-134.842,94.347l41.795,10.405
			C248.82,188.109,237.832,118.169,341.867,83.357z"/>
	</g>
	<g>
		<path fill="#F0EEED" d="M194.85,189.764c0,0-25.131-32.843-64.941-18.164c0,0,7.465,1.743,10.449,4.23
			c0,0-31.1-0.746-36.076,39.562c0,0,4.477-6.719,9.703-7.963c0,0-10.453,22.394,13.436,35.332L194.85,189.764z"/>
		<path fill="#E2E3EE" d="M164.727,169.869c3.709,5.62,5.16,13.156-1.432,16.389c-6.486,3.178-13.926,3.072-18.709,9.285
			c-2.393,3.109-2.326,6.763-3.688,10.233c-1.734,4.433-4.809,7.406-8.211,10.654c-3.713,3.546-5.717,7.424-7.619,12.184
			c-1.316,3.292-2.457,6.655-4.014,9.838c1.791,1.514,3.883,2.964,6.365,4.309l67.43-52.997
			C194.85,189.764,183.789,175.316,164.727,169.869z"/>
		<path fill="#7F3D11" d="M141.064,193.705c-12.824,15.336,0.6,27.442,7.662,32.309l27.111-21.309
			C163.479,184.442,148.092,185.301,141.064,193.705z"/>
	</g>
	<g>
		<path fill="#C96B28" d="M300.62,190.245c-19.368-5.554-35.812-8.761-50.005-10.169l0.01-0.01c0,0-0.035,0.003-0.061,0.004
			c-7.143-0.707-13.721-0.961-19.795-0.821c-10.598-1.505-23.693-5.112-34.764-13.452c0,0-1.199,8.759,1.967,19.024
			c-6.467,2.24-12.229,5.023-17.535,8.146c-2.256-0.646-4.592-1.624-6.945-3.06c0,0-0.982,3.035,0.266,7.302
			c-0.1,0.068-0.203,0.133-0.303,0.202C67.475,269.663,72.766,397.703,72.766,397.703l337.739-0.027
			c0.076-1.002-0.107-2.006-0.047-3.016C415.157,316.242,370.702,210.346,300.62,190.245z"/>
		<path opacity="0.4" fill="#BE9568" d="M213.967,224.165c-0.096-3.782-5.658-6.912-9.203-5.059
			c-4.934,2.578-1.756,8.042-3.002,11.911c-2.092,6.487-7.742,5.908-13.396,5.337c-5.295-0.536-9.035-1.867-13.965-0.393
			c-4.625,1.384-8.553,5.107-11.77,7.957c-2.418,2.145-3.586,3.082-5.09,5.848c-2.375,4.354-0.811,2.711-0.729,6.922
			c0.094,4.823-1.566,10.217-2.184,15.741c-0.703,6.332-3.064,9.297-8.275,11.798c-3.699,1.776-9.213,2.165-12,5.817
			c-2.463,3.226-1.023,5.652-1.852,9.181c-1.406,6.004-9.045,9.767-5.826,16.306c3.658,7.43,8.77,4.975,15.023,7.378
			c3.285,1.263,4.455,4.728,7.084,6.475c6.463,4.289,13.414,0.198,19.871-2.272c10.889-4.169,22.633-5.463,33.904-8.081
			c12.949-3.009,27.125,2.884,40.25,4.222c6.678,0.683,13.475,1.201,20.002,2.857c3.83,0.971,17.318,8.677,21.035,3.414
			c2.127-3.01-1.562-7.155-1.67-10.384c-0.178-5.464,2.322-4.99,5.002-9.48c3.363-5.639-0.67-9.577-3.518-15.086
			c-0.611-1.186-2.016-2.427-2.834-3.49c2.461-2.594,8.221-11.72,8.666-15.148c0.367-2.839-1.658-4.051-1.652-6.346
			c0.01-4.15,3.133-5.533,0.586-9.232c-1.084-1.579-4.807-2.933-6.41-4.06c-2.584-1.817-4.055-4.661-6.342-6.526
			c-4.658-3.803-10.951-2.403-14.703-4.631c-4.93-2.926-3.045-10.357-5.838-14.574c-4.104-6.194-5.729-0.83-11.477,0.13
			c-8.604,1.434-5.205-5.164-12.234-7.707c-2.861-1.037-4.24,0.321-6.98,0.597c-3.277,0.332-4.244-0.287-6.986-0.468
			c-2.316-0.154-2.34-1.43-3.488,0.467"/>
		<g>
			<path fill="#91461C" d="M191.771,215.236c-0.203-0.028-19.641-1.979-20.26-25.151l-0.143-5.312l4.434,2.926
				c0.113,0.072,10.748,6.877,21.811,3.004c-3.459-4.565-8.695-14.001-5.441-26.441l1.086-4.154l3.334,2.705
				c0.164,0.133,17.203,16.682,49.742,16.789l0,0c-31.148,2.608-42.598-5.729-49.52-9.959c-1.168,12.06,7.119,19.944,7.213,20.031
				l2.797,2.605l-3.348,1.844c-10.107,5.567-20.182,3.052-25.918,0.66C180.281,208.815,191.191,215.146,191.771,215.236
				L191.771,215.236z"/>
		</g>
	</g>
	
		<ellipse transform="matrix(0.9818 0.1902 -0.1902 0.9818 52.2423 -27.7259)" fill="#231F20" cx="170.602" cy="258.373" rx="5.449" ry="12.331"/>
	
		<ellipse transform="matrix(0.9818 0.1901 -0.1901 0.9818 51.7995 -28.0183)" fill="#606060" cx="171.904" cy="255.92" rx="2.614" ry="7.286"/>
	<path fill="#231F20" d="M244.633,267.368c0,0,3.461-8.143,11.695-9.919c8.238-1.778,12.822,7.018,12.822,7.018l3.275-4.492
		c0,0-1.123-10.668-12.818-10.107C247.908,250.43,244.633,267.368,244.633,267.368z"/>
	<g>
		<path fill="#91461C" d="M282.873,210.533c0,0,80.603-14.892,76.724-14.083c0,0,36.051,41.278-31.438,69.032
			C328.159,265.482,318.556,224.277,282.873,210.533z"/>
		<path fill="#F0EEED" d="M279.861,210.102c0,0,17.063-60.626,74.207-35.028c0,0-6.467,1.771-10.859,5.179
			c0,0,15.772-3.294,31.288,17.724c0,0-11.895-4.041-15.773-3.232c0,0,35.941,39.878-31.545,67.632
			C327.179,262.375,315.544,223.846,279.861,210.102z"/>
		<path fill="#7F3D11" d="M332.268,207.647c-15.854-21.615-29.796,4.123-33.919,13.081c6.426,5.086,11.602,10.878,15.688,16.499
			C323.366,235.613,347.434,228.318,332.268,207.647z"/>
		<path fill="#E2E3EE" d="M374.497,197.976c-15.516-21.018-31.288-17.724-31.288-17.724c4.393-3.407,10.859-5.179,10.859-5.179
			c-2.521-1.129-4.963-2.083-7.33-2.89c-1.014,0.308-2.023,0.635-3.029,1.02c-4.371,1.662-19.237,8.923-14.937,15.991
			c3.685,6.051,15.866-0.401,16.163,9.039c0.035,1.151-0.549,2.285-0.258,3.524c0.66,2.802,3.625,4.956,3.803,8.183
			c0.139,2.53-1.361,4.649-1.488,7.229c-0.18,3.604,0.406,7.017,0.885,10.568c0.273,2.057,0.789,4.234-0.246,6.217
			c-1.387,2.655-4.898,3.865-6.57,6.411c-2.045,3.114-1.789,7.644-5.553,9.106c-2.941,1.144-9.286,0.594-12.548,2.657
			c2.951,6.074,4.219,10.246,4.219,10.246c67.486-27.754,31.545-67.632,31.545-67.632
			C362.603,193.935,374.497,197.976,374.497,197.976z"/>
	</g>
	<g>
		<path fill="#91461C" d="M268.365,311.466c2.688,26.13-23.047,42.851-61.33,42.347c-34.756-0.459-58.127-14.942-61.088-33.153
			c-4.436-27.3,16.576-41.984,50.982-46.878C245.205,266.914,265.986,288.365,268.365,311.466z"/>
		<path fill="#F0EEED" d="M264.492,308.903c2.594,25.23-22.594,41.411-60.029,40.973c-33.988-0.399-56.826-14.355-59.695-31.938
			c-4.305-26.358,16.26-40.566,49.914-45.335C241.898,265.909,262.197,286.599,264.492,308.903z"/>
		<path fill="#E2E3EE" d="M233.178,341.438c-1.314,2.205-2.102,4.054-4.225,5.649c-0.264,0.198-0.543,0.371-0.826,0.541
			c23.871-5.235,38.365-19.29,36.365-38.725c-1.846-17.931-15.34-34.806-45.086-37.261c1.795,1.514,3.553,3.103,4.619,5.362
			c1.039,2.199,0.09,6.514,1.305,7.793c0.842,0.89,2.678-0.026,3.359,1.296c0.93,1.803-1.604,2.758-1.42,4.621
			c0.131,1.327,2.076,2.468,2.73,3.732c0.805,1.56,0.693,3.375,1.305,5.077c2.299,6.392,6.289,11.733,6.818,18.806
			c0.324,4.35,1.701,10.883,0.25,15.006C237.389,336.134,234.723,338.849,233.178,341.438z"/>
		<path fill="#1CABE2" d="M264.51,315.645c0.221-2.165,0.221-4.415-0.018-6.741c-0.258-2.494-0.752-4.965-1.471-7.382
			c-5.27-2.44-12.688,2.269-15.25-1.997c-3.711-6.187,5.783-9.896-3.139-15.774c-8.924-5.876-13.562,8.971-20.982,11.754
			c-7.424,2.782-11.135-8.529-21.033-8.439c-9.896,0.088-32.141-0.4-33.543,0c-1.404,0.397,0.961,13.842-2.387,18.407
			s-13.27-12.898-17.123,5.731c-1.791,8.661,9.754,2.855,12.229,9.659c1.932,5.312-6.6,8.926-7.533,13.346
			c2.113,1.915,4.547,3.693,7.275,5.321c1.303-1.156,2.529-2.72,5.152-1.346c2.68,1.404,4.008,3.964,5.582,6.36
			c8.98,3.246,19.846,5.187,32.193,5.332c15.291,0.179,28.533-2.418,38.68-7.266c0.201-4.83-0.801-12.676,3.391-16.839
			C250.582,321.751,259.469,318.982,264.51,315.645z"/>
		<path fill="#231F20" d="M236.488,319.08c-0.191-1.127-1.264-1.889-2.387-1.691c-0.27,0.046-27,4.368-36.178-14.392
			c-0.02-0.04-0.049-0.071-0.068-0.107c-0.037-0.066-0.074-0.132-0.117-0.192c-0.039-0.054-0.082-0.103-0.125-0.152
			c-0.045-0.05-0.09-0.101-0.141-0.147c-0.049-0.044-0.098-0.083-0.15-0.123c-0.055-0.043-0.109-0.084-0.17-0.121
			c-0.051-0.031-0.102-0.058-0.154-0.085c-0.068-0.034-0.137-0.066-0.207-0.094c-0.055-0.02-0.107-0.033-0.158-0.049
			c-0.076-0.021-0.15-0.042-0.227-0.054c-0.062-0.011-0.123-0.015-0.184-0.019c-0.053-0.004-0.104-0.016-0.158-0.016
			c-0.021,0-0.039,0.006-0.062,0.006c-0.062,0.002-0.127,0.011-0.189,0.019c-0.074,0.01-0.148,0.018-0.219,0.034
			c-0.057,0.013-0.111,0.034-0.166,0.053c-0.076,0.022-0.152,0.047-0.223,0.081c-0.016,0.006-0.033,0.01-0.049,0.018
			c-0.041,0.02-0.076,0.048-0.115,0.07c-0.062,0.036-0.123,0.072-0.184,0.114c-0.055,0.039-0.105,0.085-0.158,0.13
			c-0.047,0.044-0.096,0.086-0.139,0.133c-0.049,0.052-0.092,0.105-0.135,0.16c-0.037,0.053-0.076,0.103-0.111,0.156
			c-0.033,0.059-0.064,0.117-0.094,0.177c-0.031,0.06-0.061,0.12-0.084,0.184c-0.023,0.062-0.041,0.125-0.059,0.189
			c-0.018,0.063-0.035,0.128-0.045,0.192c-0.014,0.075-0.02,0.148-0.023,0.223c-0.004,0.044-0.016,0.086-0.016,0.13
			c0,18.76-21.062,20.456-21.957,20.52c-1.141,0.076-2.002,1.062-1.924,2.202c0.072,1.093,0.98,1.93,2.061,1.93
			c0.045,0,0.096,0,0.143-0.005c0.121-0.008,5.971-0.466,12.066-3.379c0.947,5.68,5.166,20.696,23.156,18.294
			c17.592-2.351,15.816-16.167,14.355-21.722c1.889,0.18,3.68,0.258,5.277,0.258c4.402,0,7.43-0.502,7.627-0.537
			C235.922,321.275,236.68,320.206,236.488,319.08z"/>
		<g>
			<path opacity="0.2" fill="#5E5E5E" d="M164.588,288.467c2.225-3.611,23.355-25.095,55.141-11.471
				c3.885,1.664-3.701,23.868-24.055,27.199C175.322,307.524,160.148,295.684,164.588,288.467z"/>
			<path fill="#0C76BC" d="M163.615,287.601c2.223-3.611,23.354-25.094,55.139-11.471c3.887,1.665-3.699,23.869-24.053,27.2
				C174.348,306.659,159.174,294.817,163.615,287.601z"/>
			<path fill="#1CABE2" d="M215.301,276.148c0.168,1.191-11.771,1.401-24.014,3.126c-12.246,1.727-18.939,3.392-19.107,2.2
				c-0.168-1.192,8.248-5.612,20.492-7.338C204.918,272.411,215.133,274.955,215.301,276.148z"/>
		</g>
		<path fill="#0289CC" d="M264.227,306.884c-0.281-1.809-0.682-3.6-1.205-5.362c-5.27-2.44-12.688,2.269-15.25-1.997
			c-3.711-6.187,5.783-9.896-3.139-15.774c-6.982-4.598-11.34,3.49-16.463,8.561c0.643,0.711,1.451,1.403,1.83,2.137
			c0.805,1.56,0.693,3.375,1.305,5.077c2.299,6.392,6.289,11.733,6.818,18.806c0.324,4.35,1.701,10.883,0.25,15.006
			c-0.984,2.798-3.65,5.513-5.195,8.102c-1.314,2.205-2.102,4.054-4.225,5.649c-0.264,0.198-0.543,0.371-0.826,0.541
			c4.453-0.976,8.576-2.26,12.33-3.828c0.029-0.012,0.061-0.023,0.09-0.037c0.58-0.243,1.15-0.494,1.711-0.752
			c0.062-0.027,0.125-0.054,0.184-0.081c0.238-0.11,0.467-0.226,0.701-0.339c0.199-4.831-0.795-12.661,3.391-16.819
			c4.049-4.02,12.932-6.787,17.973-10.126c0.016-0.158,0.027-0.317,0.041-0.476c0.031-0.366,0.062-0.733,0.082-1.105
			c0.01-0.203,0.014-0.409,0.02-0.615c0.01-0.354,0.023-0.709,0.023-1.066c0-0.297-0.014-0.597-0.023-0.896
			c-0.006-0.272-0.006-0.546-0.021-0.821c-0.031-0.583-0.074-1.169-0.135-1.763c-0.062-0.609-0.141-1.22-0.232-1.826
			C264.248,307.012,264.236,306.948,264.227,306.884z"/>
	</g>
	<path fill="#606060" d="M271.467,259.744c0,0-4.182-12.63-17.646-6.524c0,0,12.463-3.177,16.559,7.945L271.467,259.744z"/>
</g>
</svg>
