<?xml version="1.0" encoding="utf-8"?>
<!-- Generator: Adobe Illustrator 16.0.0, SVG Export Plug-In . SVG Version: 6.00 Build 0)  -->
<!DOCTYPE svg PUBLIC "-//W3C//DTD SVG 1.1//EN" "http://www.w3.org/Graphics/SVG/1.1/DTD/svg11.dtd">
<svg version="1.1" id="Layer_1" xmlns="http://www.w3.org/2000/svg" xmlns:xlink="http://www.w3.org/1999/xlink" x="0px" y="0px"
	 width="500px" height="400px" viewBox="0 0 500 400" enable-background="new 0 0 500 400" xml:space="preserve">
<g>
	<path fill="#91461C" d="M210.034,347.057h-6.069l-0.221,0.524l0.221-14.378l-3.094-29.979c3.725-4.452-0.694-1.329-1.696-7.476
		c-2.338-14.328,3.467-16.035-5.004-9.924c-8.472,6.113-1.693,12.095-8.704,18.858c-6.902,6.66-16.451,32.013,16.603,48.71
		c-0.628,7.141-0.601,18.125-0.601,20.046c0,2.35-1.051,19.328,11.639,19.328c12.66,0,50.985,0,50.985,0l-0.009-8.609
		L210.034,347.057z"/>
	<path fill="#4C4C4C" d="M296.639,377.453c0,7.336-4.73,13.285-10.564,13.285h-72.191c-5.834,0-10.564-5.949-10.564-13.285V200.663
		c0-7.338,4.73-13.286,10.564-13.286h72.191c5.834,0,10.564,5.948,10.564,13.286V377.453z"/>
	<path fill="#F0EEED" d="M211.117,292.239c-2.238-14.221-8.111-17.963-16.224-11.895c-8.114,6.064-7.272,15.019-13.987,21.732
		c-6.714,6.713-10.388,29.553,23.059,46.109v-38.703l0,0C207.534,305.065,212.077,298.34,211.117,292.239z"/>
	<path opacity="0.5" fill="#191919" d="M298.956,254.325c-10.842-1.668-15.668,12.309-14.549,17.904
		c1.12,5.594,8.19,11.467,9.511,19.302c1.321,7.832-16.783,53.431,5.038,58.468c21.819,5.035,9.652-31.168,7.692-41.241
		c-1.957-10.07,5.455-12.489,4.616-19.614C310.425,282.02,328.049,258.801,298.956,254.325z"/>
	<path fill="#F0EEED" d="M301.674,254.24c-10.84-1.669-15.665,12.308-14.546,17.903c1.12,5.595,8.19,11.469,9.511,19.301
		c1.32,7.834-16.783,53.432,5.035,58.469c21.822,5.034,23.221-22.1,21.262-32.172c-1.958-10.07-8.112-21.559-8.951-28.683
		S330.769,258.715,301.674,254.24z"/>
	<path fill="#303030" d="M208.505,282.942c0,0,8.149,16.723,2.742,23.559c-5.405,6.836-8.744,9.28-8.744,9.28v-15.454
		L208.505,282.942z"/>
	<path fill="#E2E3EE" d="M211.117,292.239c-1.413-8.979-4.276-13.775-8.236-14.568c1.823,2.694,2.372,6.735,2.19,9.751
		c-0.314,5.212-4.084,7.252-5.147,11.533c-0.791,3.179-0.098,5.637-1.528,8.741c-1.587,3.44-1.931,5.244-1.74,9.076
		c0.151,3.05,0.933,7.018,0.728,9.834c-0.343,4.735-4.489,7.014-8.029,9.023c-0.583,0.331-1.482,0.67-2.253,1.128
		c4.109,3.952,9.612,7.839,16.864,11.429v-38.703C207.534,305.065,212.077,298.34,211.117,292.239z"/>
	<path fill="#E2E3EE" d="M322.936,317.741c-1.958-10.07-8.112-21.559-8.951-28.683c-0.636-5.394,9.302-20.006,1.555-28.731
		c-1.668,2.224-0.148,7.563-0.55,10.267c-0.734,4.974-2.139,10.323-3.304,15.198c-0.93,3.895-0.835,6.104-0.079,9.889
		c0.801,4.025-0.83,7.599-1.367,11.643c-1.412,10.631-7.324,26.708-18.994,29.435c0.994,6.593,3.956,11.66,10.429,13.155
		C323.496,354.947,324.895,327.813,322.936,317.741z"/>
	<g>
		<g>
			<g>
				<rect x="239.492" y="383.461" fill="#C1C1C1" width="0.567" height="2.51"/>
				<polygon fill="#C1C1C1" points="245.831,385.971 245.831,383.959 245.064,383.959 245.064,383.461 247.164,383.461 
					247.164,383.959 246.4,383.959 246.4,385.971 				"/>
				<polygon fill="#C1C1C1" points="248.523,385.971 248.523,383.461 250.196,383.461 250.196,383.959 249.091,383.959 
					249.091,384.439 250.038,384.439 250.038,384.936 249.091,384.936 249.091,385.475 250.259,385.475 250.259,385.971 				"/>
				<polygon fill="#C1C1C1" points="262.991,385.971 262.991,383.959 262.224,383.959 262.224,383.461 264.325,383.461 
					264.325,383.959 263.56,383.959 263.56,385.971 				"/>
				<rect x="265.783" y="383.461" fill="#C1C1C1" width="0.568" height="2.51"/>
				<polygon fill="#C1C1C1" points="271.457,385.971 271.457,383.461 273.132,383.461 273.132,383.959 272.025,383.959 
					272.025,384.439 272.974,384.439 272.974,384.936 272.025,384.936 272.025,385.475 273.194,385.475 273.194,385.971 				"/>
				<path fill="#C1C1C1" d="M259.778,386.018c-0.718,0-1.299-0.582-1.299-1.299c0-0.713,0.581-1.295,1.299-1.295
					c0.552,0,1.045,0.35,1.225,0.873l0.031,0.088h-0.571l-0.017-0.035c-0.136-0.242-0.394-0.395-0.668-0.395
					c-0.423,0-0.765,0.344-0.765,0.764c0,0.424,0.342,0.766,0.765,0.766c0.274,0,0.532-0.152,0.668-0.395l0.017-0.035h0.571
					l-0.031,0.09C260.823,385.666,260.33,386.018,259.778,386.018z"/>
				<polygon fill="#C1C1C1" points="243.375,383.461 243.375,385.004 242.303,383.461 241.732,383.461 241.732,385.971 
					242.303,385.971 242.303,384.426 243.367,385.971 243.375,385.967 243.375,385.971 243.945,385.971 243.945,383.461 				"/>
				<path fill="#C1C1C1" d="M252.996,385.971h0.69l-0.534-0.76c0.308-0.148,0.523-0.461,0.523-0.828
					c0-0.506-0.407-0.918-0.914-0.918v-0.004h-0.959l0,0v2.51h0.571v-0.666h0.153L252.996,385.971z M252.374,384.029h0.383v0.002
					c0.193,0.002,0.348,0.158,0.348,0.352s-0.154,0.35-0.348,0.352l0,0h-0.383V384.029z"/>
				<path fill="#C1C1C1" d="M256.761,385.971h0.618l-0.994-2.51h-0.527l-0.996,2.51h0.618l0.229-0.574h0.826L256.761,385.971z
					 M255.922,384.857l0.2-0.504l0.199,0.504H255.922z"/>
				<polygon fill="#C1C1C1" points="269.541,383.461 268.901,385.076 268.26,383.461 267.642,383.461 268.637,385.971 
					269.166,385.971 270.16,383.461 				"/>
			</g>
		</g>
		<path fill="#C1C1C1" d="M233.867,377.531c0.321,0.322,0.705,0.482,1.166,0.482c0.46,0,0.856-0.16,1.165-0.482
			c0.141-0.139,0.247-0.287,0.332-0.447h3.05c-0.151,0.963-0.578,1.807-1.316,2.523c-0.887,0.898-1.963,1.334-3.223,1.336
			c-0.013,0-0.022,0-0.034,0c-0.038,0-0.078-0.002-0.116-0.002c-0.822-0.027-1.589-0.266-2.249-0.662
			c-0.295-0.184-0.574-0.408-0.839-0.672c-0.898-0.887-1.336-1.969-1.336-3.23s0.438-2.342,1.336-3.229
			c0.896-0.898,1.965-1.35,3.224-1.35c0.009,0,0.017,0,0.025,0c0.002,0,0.003,0,0.005,0c0.161,0.006,0.316,0.016,0.468,0.025
			c1.053,0.104,1.968,0.543,2.739,1.324c0.738,0.717,1.176,1.551,1.316,2.523h-3.039c-0.096-0.172-0.202-0.33-0.343-0.469
			c-0.309-0.322-0.705-0.484-1.165-0.484c-0.461,0-0.845,0.162-1.166,0.484c-0.311,0.33-0.471,0.717-0.471,1.174
			C233.396,376.826,233.557,377.223,233.867,377.531z"/>
		<g>
			<g>
				<circle fill="#C1C1C1" cx="225.356" cy="374.681" r="0.683"/>
				<circle fill="#C1C1C1" cx="227.01" cy="371.703" r="0.313"/>
				<path fill="#C1C1C1" d="M225.553,372.213c0.197,0.131,0.464,0.074,0.595-0.123c0.13-0.199,0.074-0.463-0.124-0.592
					c-0.194-0.133-0.462-0.076-0.592,0.121C225.301,371.818,225.355,372.084,225.553,372.213z"/>
				<circle fill="#C1C1C1" cx="226.436" cy="369.834" r="0.853"/>
				<path fill="#C1C1C1" d="M227.906,369.539c0.251,0.164,0.587,0.094,0.752-0.156c0.167-0.25,0.096-0.588-0.154-0.756
					c-0.252-0.162-0.589-0.094-0.754,0.156C227.586,369.035,227.657,369.373,227.906,369.539z"/>
				<circle fill="#C1C1C1" cx="229.046" cy="367.187" r="0.403"/>
				<path fill="#C1C1C1" d="M230.682,368.381c0.291,0.188,0.682,0.109,0.874-0.182c0.192-0.292,0.111-0.683-0.182-0.876
					c-0.29-0.189-0.683-0.109-0.875,0.182C230.309,367.797,230.39,368.188,230.682,368.381z"/>
				<path fill="#C1C1C1" d="M230.703,365.62c0.251,0.162,0.589,0.094,0.754-0.156c0.165-0.252,0.094-0.588-0.158-0.754
					c-0.25-0.164-0.587-0.094-0.752,0.156C230.383,365.116,230.453,365.454,230.703,365.62z"/>
				<path fill="#C1C1C1" d="M233.005,366.454c0.368,0.242,0.861,0.141,1.102-0.229c0.196-0.297,0.167-0.678-0.048-0.941
					c0.092-0.006,0.18-0.055,0.235-0.139c0.095-0.145,0.056-0.338-0.089-0.436c-0.146-0.092-0.339-0.055-0.435,0.092
					c-0.05,0.076-0.063,0.162-0.046,0.242c-0.341-0.133-0.739-0.014-0.951,0.309C232.533,365.719,232.635,366.211,233.005,366.454z"
					/>
				<circle fill="#C1C1C1" cx="235.415" cy="367.234" r="0.632"/>
				<path fill="#C1C1C1" d="M236.225,365.77c0.291,0.191,0.684,0.109,0.874-0.182c0.191-0.293,0.11-0.684-0.181-0.875
					c-0.291-0.189-0.685-0.111-0.875,0.184C235.853,365.186,235.934,365.577,236.225,365.77z"/>
				<circle fill="#C1C1C1" cx="237.828" cy="366.383" r="0.404"/>
				<circle fill="#C1C1C1" cx="240.028" cy="369.964" r="0.545"/>
				<circle fill="#C1C1C1" cx="225.925" cy="380.724" r="0.544"/>
				<circle fill="#C1C1C1" cx="224.151" cy="379.288" r="0.403"/>
				<path fill="#C1C1C1" d="M239.276,370.428c-0.078-0.051-0.165-0.082-0.25-0.1l0.003-0.002c0,0-0.182-0.012-0.17-0.193
					c0.024-0.018,0.046-0.043,0.065-0.07c0.096-0.145,0.056-0.34-0.091-0.436c-0.143-0.094-0.338-0.055-0.433,0.092
					c-0.096,0.145-0.055,0.338,0.088,0.434c0.031,0.021,0.063,0.031,0.098,0.041c0.002,0.008,0.006,0.014,0.012,0.02
					c0.064,0.061,0.036,0.123,0.015,0.156c-0.085,0.037-0.166,0.086-0.235,0.16c-0.039-0.072-0.095-0.131-0.166-0.178
					c-0.137-0.09-0.301-0.107-0.449-0.066c0.078-0.318-0.044-0.664-0.336-0.854c-0.096-0.064-0.2-0.102-0.307-0.123
					c0.044-0.033,0.081-0.074,0.115-0.123c0.052-0.08,0.078-0.172,0.085-0.262c0,0.002,0.003,0.002,0.003,0.002
					s0.099-0.398,0.424-0.24c0.292,0.191,0.683,0.109,0.875-0.182c0.191-0.293,0.111-0.683-0.181-0.875
					c-0.294-0.193-0.685-0.109-0.875,0.182c-0.071,0.107-0.105,0.228-0.105,0.345l0,0c0,0,0,0.002,0,0.008l0,0
					c0,0.051-0.01,0.344-0.318,0.318c-0.002,0-0.002,0-0.002,0c-0.021-0.016-0.041-0.033-0.063-0.049
					c-0.236-0.156-0.552-0.102-0.724,0.117c-0.048-0.109-0.126-0.205-0.234-0.275c-0.29-0.191-0.682-0.111-0.873,0.18
					c-0.032,0.051-0.059,0.1-0.075,0.154c-0.008-0.008-0.018-0.014-0.026-0.021c-0.158-0.102-0.346-0.127-0.517-0.078
					c0.032-0.035,0.064-0.074,0.091-0.113c0.244-0.369,0.139-0.861-0.227-1.105c-0.369-0.242-0.863-0.139-1.104,0.229
					c-0.13,0.193-0.16,0.422-0.106,0.628c-0.316-0.146-0.696-0.045-0.893,0.256c-0.124,0.184-0.145,0.408-0.079,0.605
					c0.005,0.018,0.01,0.031,0.018,0.047c0.007,0.02,0.016,0.037,0.025,0.055c0.131,0.248,0.34,0.188,0.482,0.273
					c0,0,0,0.006,0.004,0.008c0.135,0.068,0.23,0.215,0.23,0.377c0,0.24-0.195,0.434-0.434,0.434c-0.239,0-0.433-0.193-0.433-0.434
					c0-0.021,0.003-0.045,0.004-0.064c0.002-0.002,0-0.004,0-0.006c0.026-0.26-0.062-0.369-0.103-0.404
					c-0.006-0.004-0.012-0.01-0.019-0.014c-0.087-0.057-0.188-0.086-0.286-0.088h-0.002c-0.002,0-0.002,0-0.005,0s-0.003,0-0.003,0
					c-0.022-0.002-0.048,0-0.072,0.006c-0.048,0.008-0.093,0.018-0.137,0.035c-0.062,0.018-0.134,0.031-0.205,0.027
					c-0.11-0.004-0.207-0.104-0.349-0.16h-0.002c-0.276-0.117-0.604-0.025-0.773,0.234c-0.085,0.125-0.116,0.275-0.1,0.418
					c0,0,0,0,0,0.004c0.001,0.006,0.003,0.012,0.003,0.021c0.018,0.096,0.055,0.189,0.113,0.271c0.011,0.033-0.011,0.049-0.05,0.045
					c-0.004,0-0.009,0.004-0.014,0.004c-0.021,0-0.043,0.006-0.065,0.014c-0.02,0.002-0.04,0.008-0.061,0.012
					c-0.043,0.01-0.07,0.027-0.09,0.043c-0.012,0.006-0.021,0.016-0.033,0.021c-0.024,0.01-0.07,0.006-0.089-0.09
					c-0.008-0.016-0.016-0.037-0.021-0.057c-0.004-0.014-0.009-0.021-0.013-0.033c-0.007-0.018-0.013-0.031-0.021-0.045
					c0-0.002,0-0.002-0.001-0.002c-0.048-0.094-0.118-0.176-0.212-0.238c-0.293-0.189-0.684-0.111-0.876,0.182
					s-0.11,0.684,0.182,0.875c0.137,0.09,0.292,0.117,0.439,0.096l0.017,0.012c0.082-0.043,0.173-0.07,0.27-0.07
					c0.315,0,0.57,0.258,0.57,0.574c0,0.314-0.255,0.57-0.57,0.57s-0.572-0.256-0.572-0.57c0-0.004,0.002-0.008,0.002-0.01
					c-0.039-0.164-0.14-0.312-0.288-0.414c-0.315-0.205-0.74-0.117-0.946,0.197c-0.207,0.318-0.119,0.738,0.195,0.945
					c0.096,0.061,0.197,0.098,0.305,0.111c-0.22,0-0.435,0.107-0.564,0.299c-0.023-0.02-0.047-0.035-0.07-0.053
					c-0.394-0.256-0.921-0.148-1.18,0.246c-0.26,0.395-0.149,0.922,0.245,1.184c0.128,0.08,0.273,0.127,0.42,0.135
					c-0.025,0.027-0.048,0.055-0.067,0.086c-0.209,0.316-0.119,0.738,0.192,0.945c0.09,0.061,0.182,0.09,0.28,0.104
					c0.221,0.154,0.246,0.428,0.127,0.625c-0.03,0.041-0.256,0.316-0.598,0.084c-0.052-0.062-0.114-0.121-0.188-0.168
					c-0.393-0.258-0.922-0.15-1.181,0.244c-0.194,0.299-0.18,0.676,0.014,0.951c-0.131-0.035-0.271-0.02-0.39,0.041
					c0.019-0.225-0.08-0.451-0.282-0.584c-0.292-0.193-0.684-0.109-0.875,0.182c-0.192,0.291-0.111,0.684,0.182,0.873
					c0.21,0.141,0.474,0.135,0.679,0.012c-0.002,0.176,0.082,0.35,0.243,0.457c0.252,0.164,0.59,0.096,0.753-0.156
					c0.017-0.023,0.028-0.049,0.04-0.074l0,0c0.024-0.057,0.041-0.115,0.044-0.172c0.082-0.188,0.226-0.213,0.286-0.213
					c0.011,0,0.018,0.004,0.024,0.004c0.005,0,0.007,0,0.007,0h-0.001c0.077-0.004,0.156-0.016,0.231-0.037l0,0h0.002
					c0.063-0.02,0.124-0.047,0.18-0.08c0.174-0.027,0.225,0.131,0.181,0.268v0.002c-0.019,0.027-0.032,0.053-0.045,0.084
					c-0.002,0.002-0.004,0.004-0.005,0.006c-0.021,0.027-0.026,0.049-0.023,0.07c-0.082,0.262,0.013,0.555,0.254,0.711
					c0.116,0.08,0.253,0.113,0.383,0.104c0.047-0.016,0.095-0.025,0.146-0.025c0.032-0.012,0.064-0.021,0.095-0.037
					c-0.007,0.016-0.008,0.031-0.012,0.045c0.202,0.037,0.359,0.217,0.359,0.434c0,0.242-0.198,0.439-0.442,0.439
					c-0.191,0-0.357-0.127-0.415-0.299c-0.015-0.025-0.028-0.055-0.039-0.096c-0.005-0.061-0.018-0.121-0.038-0.18l-0.001-0.006
					l-0.001-0.002c-0.048-0.117-0.129-0.223-0.241-0.299c-0.291-0.191-0.684-0.109-0.875,0.182c-0.192,0.291-0.11,0.684,0.181,0.875
					c0.248,0.164,0.567,0.125,0.776-0.066c0.003-0.006,0.008-0.006,0.012-0.01c0.002-0.002,0.006-0.006,0.009-0.012
					c0.002,0,0.003,0,0.004-0.002c0.15-0.16,0.194-0.053,0.208,0.043c-0.089,0.324,0.034,0.684,0.33,0.877
					c0.014,0.01,0.025,0.016,0.039,0.023c-0.073,0.047-0.137,0.109-0.186,0.186c-0.192,0.289-0.11,0.68,0.182,0.871
					c0.288,0.193,0.674,0.113,0.869-0.172c-0.001,0.227,0.108,0.447,0.312,0.584c0.321,0.211,0.754,0.121,0.964-0.199
					c0.076-0.16,0.051-0.285,0.051-0.285h0.005c-0.004-0.014-0.005-0.027-0.005-0.041c0-0.148,0.119-0.266,0.268-0.266
					c0.146,0,0.266,0.117,0.266,0.266c0,0.086-0.043,0.164-0.106,0.213l0,0h-0.002c-0.029,0.021-0.062,0.039-0.1,0.045
					c-0.022,0.014-0.048,0.029-0.072,0.049c-0.009,0.008-0.018,0.018-0.027,0.025c-0.012,0.014-0.026,0.023-0.038,0.039
					c-0.022,0.025-0.046,0.053-0.065,0.086c-0.093,0.139-0.132,0.297-0.129,0.451c-0.077,0.43-0.379,0.232-0.379,0.232
					c-0.185-0.123-0.435-0.072-0.557,0.117c-0.122,0.184-0.069,0.434,0.116,0.555c0.186,0.123,0.436,0.072,0.559-0.113
					c0.011-0.018,0.019-0.037,0.026-0.055l0,0c0,0,0.003-0.002,0.004-0.006c0.005-0.012,0.009-0.023,0.013-0.033
					c0.04-0.094,0.16-0.314,0.412-0.205c0.045,0.055,0.099,0.1,0.159,0.141c0.067,0.045,0.14,0.078,0.217,0.1
					c-0.014,0.014-0.025,0.027-0.036,0.045c-0.094,0.145-0.056,0.34,0.089,0.434c0.146,0.096,0.34,0.055,0.435-0.09
					c0.084-0.127,0.063-0.295-0.043-0.396c0.168-0.051,0.317-0.158,0.421-0.316c0.037-0.057,0.064-0.117,0.086-0.178
					c0.063,0.143,0.17,0.271,0.31,0.361c0.393,0.26,0.921,0.148,1.179-0.242c0.033-0.055,0.061-0.105,0.082-0.162
					c0.022-0.061,0.036-0.115,0.045-0.164c-2.4-0.828-4.125-3.107-4.125-5.793c0-3.381,2.74-6.121,6.121-6.121
					c1.52,0,2.906,0.553,3.976,1.469c0.273-0.131,0.639-0.568,0.57-0.574C239.633,370.873,239.519,370.588,239.276,370.428z"/>
			</g>
		</g>
		<path fill="#C1C1C1" d="M272.624,373.33c-0.796-0.805-1.759-1.213-2.886-1.254h-5.235l-1.06,3.451l-1.055-3.428l0.009-0.023
			h-0.014h-3.094h-0.014l0.009,0.023l-1.055,3.428l-1.058-3.451h-3.106l0.471,1.529c-0.126-0.156-0.26-0.311-0.411-0.457
			c-0.877-0.898-1.953-1.35-3.227-1.35l0,0h-0.004l0,0c-1.262,0-2.342,0.451-3.229,1.35c-0.384,0.379-0.681,0.793-0.9,1.24
			c-0.101-0.555-0.364-1.043-0.794-1.463c-0.505-0.52-1.112-0.795-1.819-0.846h-4.773c1.095,1.105,1.771,2.623,1.771,4.307
			c0,1.625-0.634,3.098-1.669,4.195h2.912v-2.301l1.312,2.301h3.133l-1.531-2.715c0.108-0.082,0.318-0.24,0.607-0.49
			c0.168-0.141,0.31-0.311,0.43-0.504c0.104,1.051,0.544,1.965,1.322,2.734c0.888,0.898,1.968,1.336,3.229,1.336
			c1.271,0,2.354-0.438,3.23-1.336c0.843-0.82,1.285-1.811,1.348-2.953l1.202,3.928h0.007h3.1h0.006l1.049-3.428l1.052,3.428h0.003
			h3.102h0.005l1.788-5.832v5.832h2.952c0.011,0,0.019-0.004,0.029-0.004l0,0l0,0c1.104-0.037,2.068-0.443,2.856-1.242
			c0.847-0.826,1.256-1.828,1.256-3.002S273.471,374.164,272.624,373.33z M244.044,375.271c0,0.02,0,0.02,0,0.02
			c0,0.02,0,0.02,0,0.039v0.041c-0.02,0.156-0.09,0.287-0.22,0.416c-0.119,0.121-0.268,0.199-0.448,0.199h-0.977
			c-0.001-0.002-0.003-0.002-0.006-0.002l0,0v-1.439h0.982c0.181,0.012,0.329,0.08,0.448,0.209c0.151,0.139,0.21,0.287,0.22,0.486
			V375.271z M252.061,377.531c-0.319,0.334-0.692,0.492-1.165,0.492c-0.448,0-0.845-0.158-1.153-0.492
			c-0.331-0.309-0.494-0.705-0.494-1.154c0-0.457,0.163-0.844,0.494-1.174c0.309-0.322,0.705-0.484,1.153-0.484
			c0.473,0,0.846,0.162,1.165,0.484c0.322,0.33,0.494,0.717,0.494,1.174C252.555,376.826,252.383,377.223,252.061,377.531z
			 M270.754,377.479c-0.309,0.318-0.695,0.479-1.122,0.479h-0.121v-3.234c0.03-0.012,0.082-0.012,0.121-0.012
			c0.427,0,0.813,0.162,1.122,0.479c0.32,0.318,0.479,0.697,0.479,1.145S271.074,377.168,270.754,377.479z"/>
	</g>
	<rect x="213.535" y="200.141" fill="#2D2D2D" width="73.435" height="161.086"/>
	<rect x="215.415" y="202.342" fill="#EFEFEF" width="71.713" height="158.885"/>
</g>
</svg>
