<?xml version="1.0" encoding="utf-8"?>
<!-- Generator: Adobe Illustrator 16.0.0, SVG Export Plug-In . SVG Version: 6.00 Build 0)  -->
<!DOCTYPE svg PUBLIC "-//W3C//DTD SVG 1.1//EN" "http://www.w3.org/Graphics/SVG/1.1/DTD/svg11.dtd">
<svg version="1.1" id="Layer_1" xmlns="http://www.w3.org/2000/svg" xmlns:xlink="http://www.w3.org/1999/xlink" x="0px" y="0px"
	 width="500px" height="400px" viewBox="0 0 500 400" enable-background="new 0 0 500 400" xml:space="preserve">
<g>
	<g>
		<polygon fill="#AF1C69" points="123.967,213.464 376.442,207.021 338.119,399 152.145,399 		"/>
		<polygon fill="#8E145A" points="364.775,265.47 374.823,215.132 125.126,221.087 132.579,270.163 		"/>
		<g>
			<polygon fill="#ED3181" points="115.619,213.464 164.575,198.457 363.879,195.468 385.669,207.021 			"/>
		</g>
		<polygon fill="#BC1D69" points="123.967,262.486 115.619,213.464 385.669,207.021 370.705,257.5 		"/>
	</g>
	<path fill="#8E145A" d="M327.899,196.007c-0.246,2.435-3.049,4.169-7.631,6.076c-4.58,1.907-16.023,6.88-16.023,6.88
		s-3.236,5.978-8.887,6.168c-5.648,0.191-11.334-4.483-24.619-5.369"/>
	<path fill="#8E145A" d="M186.131,211.879c0,0,10.83,11.406,17.983,10.486c3.271-0.42,14.462-9.531,14.462-9.531L186.131,211.879z"
		/>
	<path fill="#8E145A" d="M165.822,200.808c0.298,3.698-0.403,5.454,5.037,7.033c5.442,1.58,15.272,4.038,15.272,4.038h4.697
		l-24.621-11.071"/>
	<path fill="#8E145A" d="M270.035,208.982c0.27,0.288,0.704,0.781,0.704,0.781l22.908-0.518l-22.734-5.534L270.035,208.982z"/>
	<polygon fill="#D1D3D4" points="218.454,209.699 220.44,260.541 265.995,259.617 269.901,209.699 	"/>
	<polygon fill="#D1D3D4" points="220.44,260.538 223.635,399 259.371,399 265.995,259.615 	"/>
	<polygon fill="#B7B7B7" points="220.622,268.383 265.622,267.474 265.995,259.615 220.44,260.538 	"/>
	<polygon fill="#B7B7B7" points="269.901,209.697 271.133,203.08 252.87,192.93 219.295,207.021 225.856,209.699 	"/>
	<path fill="#3A3A3A" d="M172.996,158.28l-2.281,5.83l-0.423,6.17l3.294,6.929l36.847,7.773l14.869,4.312l7.014,4.561l10.648,1.614
		l9.463-1.359l2.65,4.915l23.691,5.985l10.248,2.958l5.495,1.015h4.31l4.055-2.369c0,0,1.436-5.575,1.605-5.911
		c0.17-0.338-0.597-11.157-0.597-11.157s-7.451-7.563-7.314-7.963c0.138-0.401-5.946-2.596-6.284-2.853
		c-0.336-0.252,22.9-9.892,22.9-9.892v-2.952l-0.138-5.062l-2.65-5.586c0,0-2.367-1.943-2.618-1.943
		c-0.255,0-3.902,0.592-3.896,0.846c0.009,0.253-3.401,3.377-3.261,3.633c0.141,0.253-6.111,9.717-6.111,9.717l-4.817,9.295
		l-85.267,2.704l-2.983-3.762l-5.147-5.819l-7.279-6.511l-3.42-4.671l-4.491-2.307c0,0-3.125-0.422-3.38-0.422
		c-0.252,0-2.788,0.846-2.788,0.846L172.996,158.28z"/>
	<path fill="#D1D3D4" d="M290.831,175.786c0,0,5.805-9.722,8.271-14.079c2.469-4.35,8.271-10.738,11.61-4.788
		c2.404,4.289,2.097,9.137,1.737,11.517l1.27-0.487c-0.184-11.899-4.024-15.527-5.91-16.109c-1.886-0.578-25.396-4.35-29.602-4.933
		c-4.209-0.579-10.451-1.452-15.384,9.288c-4.933,10.736-11.896,15.817-19.007,19.879l30.229,7.125L290.831,175.786z"/>
	<path fill="#F2F2F2" d="M307.809,151.839c-0.125-0.037-0.35-0.089-0.654-0.153c-3.771-0.147-8.061,6.633-11.93,13.215
		c-3.869,6.584-7.695,12.343-7.695,12.343l0,0l3.301-1.458c0,0,5.805-9.722,8.271-14.079c2.469-4.35,8.271-10.738,11.61-4.788
		c2.404,4.289,2.097,9.137,1.737,11.517l1.27-0.487C313.536,156.049,309.695,152.421,307.809,151.839z"/>
	<path fill="#D1D3D4" d="M308.614,168.461c9.336-1.982,20.307,1.541,22.451,14.326c1.09,6.504-1.497,12.51-4.489,14.326
		c-2.995,1.817-23.843,11.226-23.843,11.226s-2.994,2.247-9.729,0.963c-6.737-1.283-50.568-12.296-50.568-12.296l4.595-0.854
		c0,0,44.903,11.758,46.615,12.082c1.71,0.321,5.452,1.068,7.483-1.82c2.029-2.883,5.772-13.255-2.247-21.596
		c-8.016-8.339-16.784-4.169-19.349-2.99c-2.566,1.175-15.639,14.151-34.825,10.476c-8.368-1.603-20.983-5.239-20.983-5.239v-1.284
		c0,0,14.859,4.812,22.451,5.669c3.344,0.377,17.947-1.58,28.973-10.587C279.411,177.383,308.614,168.461,308.614,168.461z"/>
	<path fill="#D1D3D4" d="M275.149,180.862c0,0-20.732-2.851-29.447-5.076c-20.459-5.224-25.828-28.151-38.889-28.151
		c-3.627,0-30.328,5.367-33.374,8.853c-3.048,3.48-6.675,11.954-0.727,20.415h1.162c0,0-4.21-4.89-2.322-12.654
		c1.887-7.76,4.665-7.485,7.69-7.328c5.515,0.581,17.851,14.368,24.67,22.927c0,0,13.794,2.245,19.812,7.218
		c0,0,29.814,9.474,37.938,2.65l12.045-5.803L275.149,180.862z"/>
	<path fill="#F2F2F2" d="M175.461,155.169c-0.957,0.461-1.66,0.901-2.022,1.317c-3.048,3.48-6.675,11.954-0.727,20.415h1.162
		c0,0-4.21-4.89-2.322-12.654c1.887-7.76,4.665-7.485,7.69-7.328c5.515,0.581,17.851,14.368,24.67,22.927
		c0,0,0.547,0.092,1.473,0.273C188.851,161.861,183.473,153.547,175.461,155.169z"/>
	<path fill="#E2E2E2" d="M298.45,180.467c0,0,7.781,7.149,8.537,16.373l24.332-10.642c0,0,0.95-9.789-7.889-15.593L298.45,180.467z"
		/>
	<path fill="#E2E2E2" d="M228.526,167.544c0.395,1.047,2.305,1.452,3.183,0.703c-5.608-4.821-9.78-10.704-14.022-14.948
		c-0.432,0.23-0.765,0.56-0.672,0.926c0.215,0.87,2.604,2.168,2.174,3.147c-0.438,0.977-5.107,3.585-3.152,5.757
		C217.991,165.304,227.985,166.095,228.526,167.544z"/>
	<path fill="#3A3A3A" d="M255.141,192.768l-5.658,1.764c0,0-6.492,2.834-14.52,0s-12.121-8.331-12.121-8.331
		s-8.547-3.198-8.929-3.002c-0.385,0.195-10.426,4.744-10.973,13.64c-0.546,8.896-2.424,9.264-1.915,11.176
		c0.512,1.914,2.127,8.965,9.57,7.116c7.443-1.849,20.939-8.111,20.939-8.111l27.835-10.181L255.141,192.768z"/>
	<path fill="#D1D3D4" d="M178.919,173.389c-4.61,1.57-11.144,5.986-12.774,16.575c-1.217,7.908-1.16,13.841,3.373,15.515
		c4.535,1.673,31.148,9.276,34.494,10.037c3.346,0.76,6.539,0.455,10.494-0.911c0.854-0.295-17.433,8.21-12.076-16.156
		c4.178-19.001,19.447-14.181,16.486-15.249c-10.341-3.726-30.569-8.287-33.457-9.047
		C182.57,173.389,180.713,172.78,178.919,173.389z"/>
	<path fill="#F2F2F2" d="M256.155,195.425l1.17,0.895c0,0-36.602,15.925-46.49,17.81c-9.889,1.882-9.421-5.309-7.192-16.441
		c2.226-11.134,8.591-11.998,11.814-12.672c2.628-0.55,6.681,2.055,11.99,7.168c5.309,5.116,12.157,4.134,16.37,4.564
		c4.209,0.434,10.723-2.544,10.727-2.544l-1.674-1.273c0,0-7.203,2.539-13.117,1.725c-12.015-1.646-10.494-7.729-20.836-11.456
		c-1.08-0.39-2.272-0.789-3.537-1.193c-5.74-1.713-14.477,10.543-14.993,20.135c-0.406,7.629,0.489,12.646,6.042,13.74
		c2.523,0.184,5.082-0.239,8.078-1.277c3.953-1.369,38.363-14.988,38.363-14.988l6.501-1.744L256.155,195.425z"/>
	<path fill="#E2E2E2" d="M261.528,160.966c0,0-3.669,7.65-9.438,11.007c-5.769,3.355,4.158-0.524,17.811-2.517
		c13.651-1.994,8.723,2.83,2.535,4.402c-6.188,1.576,16.466-0.733,16.466-0.733s5.126-7.55,6.024-10.172
		c0,0-1.83-4.017-11.164-2.129c-9.334,1.888-8.751,3.451-15.416,4.077C263.417,165.365,261.11,162.437,261.528,160.966z"/>
	<path fill="#C6C6C6" d="M244.756,175.526c0,0,23.891,6.163,31.523,4.593l-2.039,1.463
		C274.241,181.582,258.1,180.616,244.756,175.526z"/>
	<path fill="#C6C6C6" d="M274.241,181.582c0,0-10.898,10.949-24.777,9.755c0,0,21.199-7.229,20.402-10.475L274.241,181.582z"/>
	<polygon fill="#3A3A3A" points="257.479,198.885 243.042,194.384 249.973,193.354 252.87,192.93 258.788,193.924 261.536,196.902 	
		"/>
	<g>
		<path fill="#E2E2E2" d="M169.053,184.397c-0.881,2.146-1.664,4.866-2.121,8.355l31.856,8.757c0,0,0.041-4.058,1.837-8.734
			l-0.013,0.018L169.053,184.397z"/>
		<path fill="#E2E2E2" d="M205.385,185.158l-30.961-7.914c0,0-2.688,1.335-4.934,6.136l31.674,8.104
			C202.128,189.334,203.475,187.12,205.385,185.158z"/>
	</g>
	<path fill="#D1D3D4" d="M299.253,182.095l25.593-10.462c0,0,1.104,0.837,1.49,1.292l-26.656,10.798l1.684,0.78l26.244-10.093
		c0,0,0.845,1.16,0.926,1.297c0.084,0.136-26.946,10.227-26.946,10.227l-2.334-1.833V182.095z"/>
	<path fill="#D1D3D4" d="M270.035,208.982c0,0-6.981-6.029-14.901-5.768c-7.917,0.258-7.994,5.378-26.166,5.768H270.035z"/>
</g>
</svg>
